<?xml version="1.0" encoding="UTF-8"?>
<svg width="289px" height="219px" viewBox="0 0 289 219" version="1.1" xmlns="http://www.w3.org/2000/svg" xmlns:xlink="http://www.w3.org/1999/xlink">
    <!-- Generator: Sketch 64 (93537) - https://sketch.com -->
    <title>undraw_web_search_eetr</title>
    <desc>Created with Sketch.</desc>
    <g id="Welcome" stroke="none" stroke-width="1" fill="none" fill-rule="evenodd">
        <g id="Desktop-FULL" transform="translate(-1283.000000, -1078.000000)" fill-rule="nonzero">
            <g id="undraw_web_search_eetr" transform="translate(1283.000000, 1078.000000)">
                <rect id="Rectangle" fill="#E6E6E6" x="0" y="0" width="233" height="149"></rect>
                <rect id="Rectangle" fill="#FFFFFF" x="7" y="19" width="219" height="122"></rect>
                <rect id="Rectangle" fill="#AD1B1B" x="0" y="0" width="233" height="10"></rect>
                <circle id="Oval" fill="#FFFFFF" cx="7" cy="5" r="2"></circle>
                <circle id="Oval" fill="#FFFFFF" cx="14" cy="5" r="2"></circle>
                <circle id="Oval" fill="#FFFFFF" cx="21" cy="5" r="2"></circle>
                <rect id="Rectangle" fill="#E6E6E6" x="27" y="32" width="56" height="96"></rect>
                <rect id="Rectangle" fill="#AD1B1B" x="93" y="31" width="47" height="27"></rect>
                <rect id="Rectangle" fill="#E6E6E6" x="93" y="65" width="47" height="29"></rect>
                <rect id="Rectangle" fill="#E6E6E6" x="93" y="101" width="47" height="27"></rect>
                <rect id="Rectangle" fill="#E6E6E6" x="150" y="31" width="56" height="42"></rect>
                <rect id="Rectangle" fill="#AD1B1B" x="150" y="86" width="56" height="42"></rect>
                <path d="M265.845667,74.6510755 C262.107453,68.3189868 254.711693,68.0238858 254.711693,68.0238858 C254.711693,68.0238858 247.504949,67.1000102 242.881868,76.743854 C238.572786,85.7327111 232.625705,94.4116368 241.924435,96.5158621 L243.604057,91.2751701 L244.644251,96.9060261 C245.968173,97.0014849 247.296387,97.024241 248.622832,96.9741907 C258.58102,96.6518846 268.064692,97.0684882 267.759334,93.4862121 C267.353393,88.724081 269.442581,80.7438098 265.845667,74.6510755 Z" id="Path" fill="#2F2E41"></path>
                <path d="M230.718077,109 L227.506635,117.264114 L211.449425,132.355106 C211.449425,132.355106 201.815099,139.541292 206.097022,141.697148 C210.378944,143.853004 214.30404,133.792343 214.30404,133.792343 L231.431731,123.372373 L235,111.515165 L230.718077,109 Z" id="Path" fill="#FFB8B8"></path>
                <polygon id="Path" fill="#FFB8B8" points="236 200.481481 239.272727 209 244 209 240 199"></polygon>
                <polygon id="Path" fill="#FFB8B8" points="250 204.481481 253.272727 213 258 213 254 203"></polygon>
                <path d="M249.769307,206 L256,204.551382 L247.93675,172.319628 L250.613976,147.519046 L250.685585,147.512042 C250.685585,147.512042 255.266977,129.947546 251.601863,125.239537 C247.93675,120.531528 229.611181,122.342301 229.611181,122.342301 C229.611181,122.342301 222.647465,129.223237 223.013976,144.795883 C223.380487,160.368528 223.013976,173.768246 225.579556,179.924873 C228.145135,186.0815 235.475363,202.378455 235.475363,202.378455 L241.339545,201.654146 L235.108852,174.854709 L234.112644,151.55834 C234.90546,160.894007 236.501232,178.596367 237.30792,179.924873 C238.407454,181.735646 249.769307,206 249.769307,206 Z" id="Path" fill="#2F2E41"></path>
                <path d="M268.511708,116 L271.044039,125.006936 L282.258648,145.182472 C282.258648,145.182472 292.02621,153.82913 288.046833,154.909963 C284.067456,155.990795 277.917509,146.983859 277.917509,146.983859 L265.255854,129.330265 L262,116.360277 L268.511708,116 Z" id="Path" fill="#FFB8B8"></path>
                <circle id="Oval" fill="#FFB8B8" cx="255" cy="82" r="9"></circle>
                <path d="M250.621622,86 L248.513514,92.9512195 L245,101 L258,95.5121951 C258,95.5121951 257.297297,89.6585366 258,88.195122 L250.621622,86 Z" id="Path" fill="#FFB8B8"></path>
                <path d="M266,100.811655 L257.596154,93.9008384 L248.096154,97.9018377 L248.468378,92 L238.332185,95.222554 L236.769231,95.7194599 L234.576923,106.995003 C234.576923,106.995003 233.115385,108.086185 231.653846,114.269548 C230.810054,117.903172 229.585393,121.438577 228,124.817637 C228,124.817637 243.711538,118.634274 251.384615,127 C251.384615,127 252.480769,126.272546 252.115385,125.181364 C251.75,124.090182 255.403846,118.634274 255.403846,118.634274 C255.403846,118.634274 255.403846,119.725456 256.865385,117.543093 C258.326923,115.360729 259.423077,114.997002 259.423077,114.997002 L266,100.811655 Z" id="Path" fill="#AD1B1B"></path>
                <path d="M239,96.3762679 L237.493828,95.0754571 C237.493828,95.0754571 236.241379,94.5291865 235.206897,96.3762679 C234.172414,98.2233492 229,109.675254 229,109.675254 L235.206897,113 L239,96.3762679 Z" id="Path" fill="#AD1B1B"></path>
                <path d="M261.483871,100 L266.451613,100.357143 C266.451613,100.357143 269.290323,101.785714 269.290323,103.928571 C269.290323,106.071429 270,117.5 270,117.5 L262.193548,120 L259,110 L261.483871,100 Z" id="Path" fill="#AD1B1B"></path>
                <path d="M238.515143,208 L232.313505,210.39501 C232.313505,210.39501 225.017461,210.737155 226.111867,214.158598 C227.206274,217.580042 238.15034,215.185031 238.15034,215.185031 C238.15034,215.185031 248,215.527176 248,213.132165 C248,210.737155 246.540791,208 245.081582,208 L238.515143,208 Z" id="Path" fill="#2F2E41"></path>
                <path d="M252.515143,211 L246.313505,213.39501 C246.313505,213.39501 239.017461,213.737155 240.111867,217.158598 C241.206274,220.580042 252.15034,218.185031 252.15034,218.185031 C252.15034,218.185031 262,218.527176 262,216.132165 C262,213.737155 260.540791,211 259.081582,211 L252.515143,211 Z" id="Path" fill="#2F2E41"></path>
                <polygon id="Path" fill="#2F2E41" points="264.648994 73.9034865 257.280438 70 247.105302 71.5968808 245 81 250.240538 80.7964868 251.70465 77.3415375 251.70465 80.7395472 254.122852 80.6455049 255.526142 75.1455049 256.40329 81 265 80.8225688"></polygon>
                <path d="M216.113881,30.4922006 C196.001824,13.5060751 166.046214,15.5820043 148.464907,35.1802867 C130.883601,54.778569 132.035499,84.8107916 151.066248,103.002275 C170.096997,121.193758 200.123453,120.964908 218.875213,102.485461 L278.616952,152.940598 C279.842393,153.975856 281.526589,154.278042 283.03501,153.733306 C284.543432,153.188571 285.646868,151.879688 285.929595,150.299786 C286.212322,148.719883 285.631377,147.109035 284.405635,146.074134 L224.663896,95.6189929 C239.046727,74.957978 235.341257,46.7328357 216.113881,30.4922006 L216.113881,30.4922006 Z M212.262577,90.7604947 C202.744857,102.050312 187.369604,106.489964 173.306277,102.009249 C159.24295,97.5285331 149.261081,85.0098503 148.0152,70.2906435 C146.76932,55.5714368 154.504783,41.5504026 167.614555,34.7655287 C180.724326,27.9806548 196.626661,29.7681063 207.906323,39.2943972 C223.308461,52.3023396 225.258823,75.344495 212.262577,90.7604947 L212.262577,90.7604947 Z" id="Shape" fill="#3F3D56"></path>
                <path d="M160.764388,94.8712082 C146.296961,82.6682324 143.612777,61.4136112 154.592586,46 C153.89717,46.7000052 153.224895,47.433121 152.575759,48.1993473 C144.194899,58.1255524 141.749041,71.7669142 146.159594,83.9844275 C150.570148,96.2019408 161.166977,105.139287 173.95802,107.429568 C186.749063,109.719849 199.790859,105.015082 208.170273,95.087657 C208.817934,94.3204531 209.427843,93.5347367 210,92.7305075 C196.646085,106.141804 175.232968,107.072819 160.764388,94.8712082 L160.764388,94.8712082 Z" id="Path" fill="#000000" opacity="0.3"></path>
            </g>
        </g>
    </g>
</svg>