<?xml version="1.0" encoding="UTF-8"?>
<svg width="359px" height="220px" viewBox="0 0 359 220" version="1.1" xmlns="http://www.w3.org/2000/svg" xmlns:xlink="http://www.w3.org/1999/xlink">
    <!-- Generator: Sketch 64 (93537) - https://sketch.com -->
    <title>undraw_mobile_devices_k1ok</title>
    <desc>Created with Sketch.</desc>
    <g id="Welcome" stroke="none" stroke-width="1" fill="none" fill-rule="evenodd">
        <g id="Desktop-FULL" transform="translate(-781.000000, -1078.000000)" fill-rule="nonzero">
            <g id="undraw_mobile_devices_k1ok" transform="translate(781.000000, 1078.000000)">
                <polygon id="Path" fill="#E6E6E6" points="143 217 135 217 137.666846 67 140.333693 67"></polygon>
                <path d="M357.581131,39.712425 C357.957422,39.712425 358.3183,39.5629967 358.584377,39.2970128 C358.850455,39.031029 359,38.6702776 359,38.2941203 L359,23.1655574 C359.004435,22.7037318 358.78155,22.2692024 358.403781,22.0033178 C358.026012,21.7374332 357.541634,21.6741708 357.108211,21.8341094 L357.108211,4.72767215 C357.108214,3.47381559 356.609946,2.27131289 355.723022,1.38470195 C354.836099,0.498090999 353.633171,0 352.37887,0 L197.729341,0 C196.47504,0 195.272112,0.498090999 194.385189,1.38470195 C193.498265,2.27131289 193,3.47381559 193,4.72767215 L193,212.272328 C193,214.883345 195.117399,217 197.729341,217 L352.378855,217 C354.990796,217 357.10819,214.883345 357.108196,212.272328 L357.108196,60.9000577 C357.541619,61.0599912 358.025994,60.9967267 358.403762,60.7308431 C358.781529,60.4649596 359.004415,60.0304335 359,59.5686098 L359,44.4400569 C359.004415,43.9782332 358.781529,43.5437071 358.403762,43.2778236 C358.025994,43.01194 357.541619,42.9486755 357.108196,43.108609 L357.108196,39.6255331 C357.259678,39.6814379 357.419664,39.7108319 357.581131,39.712425 L357.581131,39.712425 Z" id="Path" fill="#3F3D56"></path>
                <path d="M344.244292,10 C345.505585,10 346.715218,10.4966814 347.607087,11.3807833 C348.498955,12.2648852 349,13.463985 349,14.7142939 L349,203.285751 C349,205.889365 346.870778,208 344.244292,208 L207.755693,208 C205.129214,208 203,205.889358 203,203.285751 L203,14.7142939 C203,12.1106672 205.129194,10 207.755693,10 L344.244292,10" id="Path" fill="#FFFFFF"></path>
                <circle id="Oval" fill="#FFFFFF" cx="275" cy="5" r="2"></circle>
                <rect id="Rectangle" fill="#AD1B1B" x="216" y="34" width="115" height="12"></rect>
                <rect id="Rectangle" fill="#E6E6E6" x="216" y="61" width="115" height="4"></rect>
                <rect id="Rectangle" fill="#E6E6E6" x="216" y="74" width="115" height="4"></rect>
                <rect id="Rectangle" fill="#E6E6E6" x="214" y="88" width="60" height="4"></rect>
                <rect id="Rectangle" fill="#E6E6E6" x="216" y="103" width="115" height="4"></rect>
                <rect id="Rectangle" fill="#E6E6E6" x="216" y="117" width="115" height="4"></rect>
                <rect id="Rectangle" fill="#E6E6E6" x="215" y="130" width="58" height="4"></rect>
                <rect id="Rectangle" fill="#E6E6E6" x="216" y="143" width="115" height="4"></rect>
                <rect id="Rectangle" fill="#E6E6E6" x="216" y="158" width="115" height="4"></rect>
                <rect id="Rectangle" fill="#AD1B1B" x="295" y="174" width="37" height="12"></rect>
                <path d="M90,76.5862028 L89.1867462,76.5862028 L89.1867462,49.0220859 C89.1867462,40.1733322 82.1376508,33 73.4421511,33 L15.7446247,33 C11.5688902,33 7.56418255,34.6880378 4.61149237,37.6927677 C1.65880218,40.6974976 0,44.7727863 0,49.0221161 L0,200.977879 C0,205.227209 1.65880202,209.302498 4.61149207,212.307229 C7.56418211,215.31196 11.5688898,217 15.7446247,217 L73.4421511,217 C82.1376508,217 89.1867462,209.826668 89.1867462,200.977914 L89.1867462,96.1724112 L90,96.1724112 L90,76.5862028 Z" id="Path" fill="#3F3D56"></path>
                <path d="M87,47.757646 L87,200.064919 C87,206.656482 81.6271694,212 74.999447,212 L16.000553,212 C9.3728306,212 4,206.656482 4,200.064919 L4,47.757646 C4,41.8163621 8.84278336,37 14.8166594,37 L23.1464552,37 C22.5097929,38.5835679 22.6030706,40.3651046 23.4016662,41.874343 C24.377653,43.5476518 26.1412393,44.6135473 28.0841677,44.7044042 L62.4097708,44.7044042 C64.3528387,44.6135811 66.1165298,43.547521 67.0924087,41.8739916 C67.8907247,40.3647909 67.9838941,38.5834475 67.347332,37 L76.1833608,37 C82.157223,37 87,41.8163759 87,47.757646 L87,47.757646 Z" id="Path" fill="#FFFFFF"></path>
                <path d="M154.830184,6.55202165 C154.830184,6.55202165 148.490561,4.29826525 144.415092,13.3132959 C140.339622,22.3283266 134,32.244869 134,32.244869 L137.622643,33.1463909 C137.622643,33.1463909 138.528306,26.8358648 140.792454,25.9343633 L139.886796,34.0478924 C139.886796,34.0478924 167.056592,43.5136815 179.283015,33.1463909 L178.830189,29.9911279 C178.830189,29.9911279 180.641505,30.4418812 180.641505,33.1463909 L182,31.794136 C182,31.794136 180.641505,29.0896212 176.566036,25.48361 C173.891074,23.1167773 172.97184,18.6139101 172.655951,15.7986239 C172.419294,13.4478436 171.474423,11.223139 169.945259,9.41628224 C167.236892,6.29186422 162.301883,2.9710497 154.830184,6.55202165 Z" id="Path" fill="#2F2E41"></path>
                <polygon id="Path" fill="#FBBEBE" points="118 84.0003162 123.499684 91 127 86.9998419 124 82"></polygon>
                <polygon id="Path" fill="#FBBEBE" points="116.117558 198 114 208.499781 119.294147 211 123 208.499781 123 198"></polygon>
                <polygon id="Path" fill="#FBBEBE" points="153.882058 198 156 208.499781 150.706148 211 147 208.499781 147 198"></polygon>
                <polygon id="Path" fill="#2F2E41" points="131.590582 97 124.34717 149.576857 114 197.422644 126.416997 199 136.246956 154.308924 148.663462 116.453387 147.111337 161.670083 144.52479 199 153.837047 199 160.562757 148.525619 168 110.998719 167.805678 97"></polygon>
                <path d="M116.943313,207.079742 C116.943313,207.079742 114.271247,203.830147 112.668004,205.454942 C111.064761,207.079736 107.323867,213.578935 107.323867,213.578935 C107.323867,213.578935 98.7732491,218.453323 105.720629,219.536523 C112.668009,220.619723 114.805656,219.536523 114.805656,218.994923 C114.805656,218.453323 115.874484,216.828529 115.874484,216.828529 L118.546555,217.370129 L122.28745,216.286929 C122.28745,216.286929 123.890688,206.307855 122.28745,206.693798 C120.684212,207.079742 117.477727,208.704541 116.943313,207.079742 Z" id="Path" fill="#2F2E41"></path>
                <path d="M150.05669,207.079742 C150.05669,207.079742 152.728756,203.830147 154.331994,205.454942 C155.935231,207.079736 159.676131,213.578935 159.676131,213.578935 C159.676131,213.578935 168.226749,218.453323 161.279374,219.536523 C154.331999,220.619723 152.194342,219.536523 152.194342,218.994923 C152.194342,218.453323 151.125513,216.828529 151.125513,216.828529 L148.453447,217.370129 L144.712552,216.286929 C144.712552,216.286929 143.10931,206.307855 144.712552,206.693798 C146.315795,207.079742 149.522276,208.704541 150.05669,207.079742 Z" id="Path" fill="#2F2E41"></path>
                <circle id="Oval" fill="#FBBEBE" cx="157.5" cy="23.5" r="10.5"></circle>
                <path d="M163,30 C163,30 162,38.7741945 162.5,40.8387083 C163,42.903222 164,46 164,46 L148,42.9032269 C148,42.9032269 152.5,33.0967731 151.5,31.548389 C150.5,30 163,30 163,30 Z" id="Path" fill="#FBBEBE"></path>
                <path d="M166.203404,43.6402607 L148.305088,40 L138,100.324327 C142.645099,99.1081825 147.567735,99.2897163 152.101689,100.84436 C159.694912,103.44455 170,100.84436 170,100.84436 L167.83051,44.1602986 L166.203404,43.6402607 Z" id="Path" fill="#AD1B1B"></path>
                <path d="M151.308275,34 L144.967212,37.2362506 L136.852459,38.805381 L128.196722,58.6810081 L129.27869,72.803162 C129.27869,72.803162 120.081968,89.0174898 119,97.9092189 C119,97.9092189 120.081968,111.508319 137.934428,110.985291 L149.836065,79.0796787 C149.836065,79.0796787 154.704918,55.0197088 149.836065,48.2201535 C149.836065,48.2201387 153.321473,35.4711506 151.308275,34 Z" id="Path" fill="#2F2E41"></path>
                <path d="M142,39.2935789 L140.244983,39 L138.747979,39.2935789 C138.747979,39.2935789 134.953977,39.8250496 130.617974,43.5453391 C126.281971,47.2656287 111.647964,58.9579932 110.563962,62.1467869 C109.47996,65.3355806 110.021961,70.6503074 111.647964,73.8391263 C113.273967,77.0279452 116.525963,81.2797104 116.525963,81.2797104 L118.151966,85 L127.365973,82.3426467 C127.365973,82.3426467 121.403967,71.181778 121.945968,66.3985472 L132.786019,57.8950267 L142,39.2935789 Z" id="Path" fill="#2F2E41"></path>
                <path d="M162.673885,37 L170.732582,46.9069861 L175,52.214393 L169.665701,70.2595684 L166.998567,85.6510681 C166.998567,85.6510681 173.399691,110.065133 168.065417,117.495504 C168.065417,117.495504 164.864855,121.210688 163.797999,116.964763 C162.731144,112.718839 162.731149,92.5506985 162.731149,92.5506985 C162.731149,92.5506985 158.463731,66.013669 160.597437,59.1140436 C162.731144,52.2144181 160.48291,38.2385589 162.673885,37 Z" id="Path" fill="#2F2E41"></path>
                <path d="M171.096427,113.520618 L171.096427,118.72684 C171.096427,118.72684 169.915196,135.907371 175.821345,133.824905 C181.727494,131.742438 177.593186,118.72684 177.593186,118.72684 L177.00257,113 L171.096427,113.520618 Z" id="Path" fill="#FBBEBE"></path>
                <path d="M144.412637,24 C148.459919,21.2036524 151.736093,17.9828366 153.903312,14.1515166 C153.903312,14.1515166 161.3308,22.0303033 165.869824,22.4242417 C170.408848,22.8181801 166.282461,12.9696967 166.282461,12.9696967 L158.029698,11 L150.189572,11.7878816 L144,15.7272749 L144.412637,24 Z" id="Path" fill="#2F2E41"></path>
                <polygon id="Path" fill="#2F2E41" points="169.958226 50 174.291388 51.5868059 174.833419 56.8759916 177 89.1403756 175.916453 113.471232 167.791645 114 165.083034 87.0248017 164 57.4052613"></polygon>
                <rect id="Rectangle" fill="#AD1B1B" x="13" y="81" width="64" height="5"></rect>
                <rect id="Rectangle" fill="#E6E6E6" x="13" y="95" width="64" height="3"></rect>
                <rect id="Rectangle" fill="#E6E6E6" x="13" y="103" width="64" height="3"></rect>
                <rect id="Rectangle" fill="#E6E6E6" x="13" y="110" width="33" height="3"></rect>
                <rect id="Rectangle" fill="#E6E6E6" x="13" y="118" width="64" height="3"></rect>
                <rect id="Rectangle" fill="#E6E6E6" x="13" y="126" width="64" height="3"></rect>
                <rect id="Rectangle" fill="#E6E6E6" x="13" y="134" width="33" height="3"></rect>
                <rect id="Rectangle" fill="#E6E6E6" x="13" y="142" width="64" height="3"></rect>
                <rect id="Rectangle" fill="#E6E6E6" x="13" y="148" width="64" height="3"></rect>
                <rect id="Rectangle" fill="#AD1B1B" x="57" y="159" width="21" height="5"></rect>
            </g>
        </g>
    </g>
</svg>