<?xml version="1.0" encoding="UTF-8"?>
<svg width="321px" height="219px" viewBox="0 0 321 219" version="1.1" xmlns="http://www.w3.org/2000/svg" xmlns:xlink="http://www.w3.org/1999/xlink">
    <!-- Generator: Sketch 64 (93537) - https://sketch.com -->
    <title>undraw_wordpress_utxt</title>
    <desc>Created with Sketch.</desc>
    <g id="Welcome" stroke="none" stroke-width="1" fill="none" fill-rule="evenodd">
        <g id="Desktop-FULL" transform="translate(-342.000000, -1077.000000)">
            <g id="undraw_wordpress_utxt" transform="translate(343.000000, 1078.000000)">
                <rect id="Rectangle" stroke="#3F3D56" x="121" y="35" width="162" height="33"></rect>
                <path d="M25,82.1195264 C29.594237,74.8825389 38.2926837,70 48.2669594,70 C63.0312114,70 75,80.6980754 75,93.8948236 C75,102.332276 70.1074044,109.748328 62.7197251,114" id="Path" stroke="#3F3D56"></path>
                <rect id="Rectangle" fill="#AD1B1B" fill-rule="nonzero" x="110" y="41" width="162" height="33"></rect>
                <circle id="Oval" fill="#AD1B1B" fill-rule="nonzero" cx="7.5" cy="6.5" r="2.5"></circle>
                <circle id="Oval" fill="#AD1B1B" fill-rule="nonzero" cx="15.5" cy="6.5" r="2.5"></circle>
                <circle id="Oval" fill="#AD1B1B" fill-rule="nonzero" cx="24.5" cy="6.5" r="2.5"></circle>
                <rect id="Rectangle" stroke="#3F3D56" x="0" y="0" width="302" height="196"></rect>
                <line x1="0" y1="11" x2="302" y2="11" id="Path" stroke="#3F3D56"></line>
                <circle id="Oval" stroke="#3F3D56" cx="7.5" cy="5.5" r="2.5"></circle>
                <circle id="Oval" stroke="#3F3D56" cx="16.5" cy="5.5" r="2.5"></circle>
                <circle id="Oval" stroke="#3F3D56" cx="25.5" cy="5.5" r="2.5"></circle>
                <line x1="95" y1="11" x2="95" y2="197" id="Path" stroke="#3F3D56"></line>
                <rect id="Rectangle" fill="#F2F2F2" fill-rule="nonzero" x="129" y="102" width="53" height="7"></rect>
                <rect id="Rectangle" fill="#F2F2F2" fill-rule="nonzero" x="212" y="102" width="53" height="7"></rect>
                <rect id="Rectangle" stroke="#3F3D56" x="132" y="99" width="53" height="7"></rect>
                <rect id="Rectangle" fill="#F2F2F2" fill-rule="nonzero" x="129" y="158" width="53" height="7"></rect>
                <rect id="Rectangle" stroke="#3F3D56" x="132" y="155" width="53" height="7"></rect>
                <rect id="Rectangle" fill="#F2F2F2" fill-rule="nonzero" x="129" y="130" width="136" height="7"></rect>
                <rect id="Rectangle" stroke="#3F3D56" x="132" y="127" width="136" height="7"></rect>
                <rect id="Rectangle" stroke="#3F3D56" x="215" y="99" width="53" height="7"></rect>
                <path d="M284.070863,77.534292 C284.185018,77.9154415 284.331222,78.2868453 284.508003,78.6447583 C286.473903,83.1301578 286.559214,88.1833113 284.745781,92.7288504 C286.051446,92.6494746 287.35528,92.8544676 288.659708,92.9524579 C289.964136,93.0504482 291.314298,93.0342713 292.526963,92.538646 C293.739628,92.0430207 294.795242,90.9811909 294.971908,89.6711158 C295.210435,87.9022699 293.884468,86.3595432 292.720372,85.0170331 C291.534147,83.6489982 290.388019,82.1401938 290.036976,80.3559907 C289.651102,78.3947499 290.200338,76.095187 288.924196,74.5672417 C288.812291,74.420249 288.667211,74.3000778 288.500073,74.2159363 C287.814603,73.9109394 286.029976,73.920736 285.340059,74.2984069 C284.278063,74.8797566 283.809855,76.4129975 284.070863,77.534292 Z" id="Path" fill="#3F3D56" fill-rule="nonzero"></path>
                <path d="M319.98198,207.886076 C319.902739,208.489099 319.765262,209.082362 319.571616,209.656947 C319.571616,209.656947 318.305583,212.674505 313.098551,211.860696 C309.69711,211.328646 309.719891,209.677394 310.283771,208.399235 C310.540276,207.867014 310.851632,207.365101 311.212403,206.902259 C311.718525,206.193913 311.66836,203.491165 311.84619,201.026109 C312.0225,198.559487 313.098551,198.433573 313.098551,198.433573 L313.162392,201.208713 C315.189876,198.454024 316.607896,201.680945 316.607896,201.680945 C316.607896,201.680945 319.491012,201.743015 319.138461,200.212308 C318.762916,198.581789 318.202225,196 318.202225,196 C318.202225,196 319.59746,196.67057 319.849754,197.142802 C320.103568,197.615034 319.799596,203.938215 319.571616,204.541103 C319.343636,205.14399 319.571616,206.771607 319.901431,207.243839 C319.99426,207.443379 320.022507,207.668596 319.98198,207.886076 L319.98198,207.886076 Z" id="Path" fill="#3F3D56" fill-rule="nonzero"></path>
                <path d="M319,200.004938 C318.999077,201.291107 318.217095,202.428314 317.067533,202.815246 C315.965718,203.186899 314.764621,202.991484 313.816686,202.286341 C313.239462,201.856849 312.930653,201.123217 313.013209,200.377538 L313.091618,199.678118 L313.375726,197.12832 L313.766362,193.615429 C313.766362,193.615429 317.967181,191.332444 317.687507,192.194484 C317.582455,192.516562 317.814756,193.965909 318.147685,195.655271 C318.384439,196.863076 318.671498,198.192445 318.924519,199.31974 C318.974965,199.544154 319.000301,199.774159 319,200.004938 Z" id="Path" fill="#FBBEBE" fill-rule="nonzero"></path>
                <path d="M312,199.73227 C312,199.73227 315.84902,195.594864 319,200.108398 L318.471576,203 L312,203 L312,199.73227 Z" id="Path" fill="#000000" fill-rule="nonzero" opacity="0.1"></path>
                <path d="M312,200.73227 C312,200.73227 315.84902,196.594864 319,201.108398 L318.471576,204 L312,204 L312,200.73227 Z" id="Path" fill="#3F3D56" fill-rule="nonzero"></path>
                <circle id="Oval" fill="#F2F2F2" fill-rule="nonzero" cx="317.5" cy="202.5" r="1"></circle>
                <circle id="Oval" fill="#F2F2F2" fill-rule="nonzero" cx="312.5" cy="201.5" r="1"></circle>
                <circle id="Oval" fill="#F2F2F2" fill-rule="nonzero" cx="316.5" cy="205.5" r="1"></circle>
                <circle id="Oval" fill="#F2F2F2" fill-rule="nonzero" cx="312.5" cy="204.5" r="1"></circle>
                <circle id="Oval" fill="#F2F2F2" fill-rule="nonzero" cx="316.5" cy="204.5" r="1"></circle>
                <circle id="Oval" fill="#F2F2F2" fill-rule="nonzero" cx="312.5" cy="203.5" r="1"></circle>
                <circle id="Oval" fill="#F2F2F2" fill-rule="nonzero" cx="315.5" cy="206.5" r="1"></circle>
                <circle id="Oval" fill="#F2F2F2" fill-rule="nonzero" cx="312.5" cy="206.5" r="1"></circle>
                <path d="M286,212.265803 L281.028975,214 C281.028975,214 278.397259,211.285602 279.128289,210.456204 C279.439711,210.101816 279.711654,208.925581 279.919274,207.692039 C279.986523,207.302972 280.046472,206.906368 280.099103,206.52938 C280.271636,205.303379 280.371047,204.273421 280.371047,204.273421 C280.371047,204.273421 286.146207,201.408223 285.195865,204.273421 C284.959531,205.085136 284.866915,205.934127 284.922457,206.779713 C284.963384,207.623015 285.066514,208.461878 285.230953,209.289027 C285.424976,210.297309 285.681859,211.291632 286,212.265803 L286,212.265803 Z" id="Path" fill="#FBBEBE" fill-rule="nonzero"></path>
                <path d="M286,213.075546 L281.028975,215 C281.028975,215 278.397259,211.987808 279.128289,211.067418 C279.439711,210.674151 279.711654,209.368872 279.919274,208 C280.201462,208.57683 280.397631,209.203484 280.499709,209.854177 C284.793795,212.553434 284.866903,210.941911 284.866903,210.941911 C284.915334,210.527115 285.039364,210.128592 285.230956,209.772164 C285.424978,210.891073 285.681859,211.994492 286,213.075546 L286,213.075546 Z" id="Path" fill="#000000" fill-rule="nonzero" opacity="0.1"></path>
                <path d="M287.878986,216.44829 C287.878986,216.44829 286.964147,217.15465 284.28186,217.256482 C283.579534,217.283966 282.880157,217.365797 282.18954,217.501295 C279.361402,218.072257 276.461867,218.153591 273.608194,217.742009 C272.872857,217.63896 272.14411,217.490322 271.425852,217.296893 C268.664215,216.508096 270.764618,214.691282 270.764618,214.691282 C270.764618,214.691282 270.896879,214.57167 271.125589,214.392233 C271.710588,213.936411 272.924142,213.095902 274.168824,212.892233 C275.89893,212.609367 277.49368,209.417009 277.49368,209.417009 L278.582776,207.375515 C280.273986,205.860964 280.858988,209.417009 280.858988,209.417009 C285.428523,212.024235 285.506321,210.467657 285.506321,210.467657 C285.759929,209.072717 286.226681,209.072717 286.226681,209.072717 C286.226681,209.072717 287.365557,212.258605 287.777878,213.053872 C287.805089,213.111847 287.839048,213.166133 287.878993,213.21551 C288.151263,213.498388 287.878986,216.44829 287.878986,216.44829 Z" id="Path" fill="#3F3D56" fill-rule="nonzero"></path>
                <circle id="Oval" fill="#F2F2F2" fill-rule="nonzero" cx="280.5" cy="211.5" r="1"></circle>
                <circle id="Oval" fill="#F2F2F2" fill-rule="nonzero" cx="278.5" cy="212.5" r="1"></circle>
                <circle id="Oval" fill="#F2F2F2" fill-rule="nonzero" cx="279.5" cy="211.5" r="1"></circle>
                <circle id="Oval" fill="#F2F2F2" fill-rule="nonzero" cx="277.5" cy="212.5" r="1"></circle>
                <path d="M285.87818,204.347634 C285.605611,205.206657 285.498797,206.10513 285.562854,207 C284.067174,206.524431 281.617085,206.607421 280,206.735077 C280.198985,205.43762 280.313637,204.347634 280.313637,204.347634 C280.313637,204.347634 286.974224,201.315458 285.87818,204.347634 Z" id="Path" fill="#000000" fill-rule="nonzero" opacity="0.1"></path>
                <path d="M318,195.376392 C316.094578,197.133725 314.272869,197.243102 313,196.737054 L313.409302,193.492179 C313.409302,193.492179 317.810857,191.383375 317.517819,192.179646 C317.407761,192.477151 317.651162,193.815933 318,195.376392 Z" id="Path" fill="#000000" fill-rule="nonzero" opacity="0.1"></path>
                <path d="M283.979144,132 C283.979144,132 280.943621,133.713396 280.398848,137.062308 C279.854075,140.411221 278.920173,144.694706 278.21975,145.473522 C277.519328,146.252338 275.34023,148.744554 276.196302,150.068537 C277.052375,151.39252 277.208028,155.909658 277.208028,155.909658 C277.208028,155.909658 276.896728,159.959504 277.752801,161.28349 C278.608873,162.607476 279.309299,171.018693 277.441501,173.510905 C277.441501,173.510905 276.818902,179.274136 277.052378,179.819316 C277.285855,180.364497 276.040653,181.766356 276.429779,182.934582 C276.818905,184.102808 278.6867,205.598134 278.453227,206.45483 C278.453227,206.45483 284.367917,205.598148 285.924415,207 C285.924415,207 286.235715,204.663554 285.924415,203.028038 C285.613116,201.392522 286.157888,194.928351 286.858314,193.292835 C287.55874,191.657319 287.714372,185.426795 287.480914,184.803741 C287.480914,184.803741 288.726112,179.274143 288.259181,178.183804 C287.792249,177.093464 290.282629,167.046731 290.282629,167.046731 C290.282629,167.046731 291.527827,164.632402 291.216528,164.320875 C291.216528,164.320875 293.239972,162.996886 293.006499,161.984426 C292.773026,160.971967 294.874297,159.80374 294.874297,159.80374 C294.874297,159.80374 296.742095,164.398755 297.36468,165.099692 C297.987265,165.800628 298.011705,170.31776 298.77774,171.25234 C299.543774,172.186919 300.555514,177.093461 301.567222,178.417447 C302.57893,179.741433 306.62584,183.246109 307.248439,187.21807 C307.248439,187.21807 310.906212,192.903428 310.750562,194.694704 C310.594912,196.48598 314.87527,199.757009 319,193.682245 C317.598967,192.642245 316.787111,190.988333 316.820902,189.242993 C316.820902,186.205607 313.552252,176.470408 313.552252,176.470408 C313.552252,176.470408 311.684458,173.744549 312.38488,172.420562 C313.085303,171.096576 312.462707,167.202494 312.462707,167.202494 L313.941379,164.788165 C313.941379,164.788165 314.174852,162.451716 314.408328,160.037383 C314.641805,157.623051 313.00748,154.975079 313.785729,153.806856 C314.563978,152.638633 313.474429,146.80179 313.474429,146.80179 C313.474429,146.80179 312.505863,136.740569 311.061858,136.127725 C309.617854,135.514882 283.979144,132 283.979144,132 Z" id="Path" fill="#3F3D56" fill-rule="nonzero"></path>
                <path d="M292,117.261973 C292,117.261973 290.342494,117.443934 288.329934,117.627441 C285.418406,117.891833 281.762859,118.159335 281.327085,117.884061 C280.591144,117.417484 281.327085,111.507518 281.327085,111.507518 C281.327085,111.507518 281.580483,105.053215 281.338392,100.542981 C281.141497,96.8834647 283.655988,94.1959901 284.609825,93.3126054 C284.83255,93.1073121 284.96973,93 284.96973,93 L285.776693,93.6221017 L290.376383,101.165083 L292,117.261973 Z" id="Path" fill="#FBBEBE" fill-rule="nonzero"></path>
                <path d="M309,91.84418 L304.728765,94.5105057 L297.71174,100 C297.71174,100 290.465904,96.0789327 292.296426,93.8047154 C292.637352,93.3550531 292.867142,92.8270946 292.966097,92.2660972 C293.516775,89.6468253 292.296426,85.884172 292.296426,85.884172 C292.296426,85.884172 301.842643,72.6293985 301.296525,82.9041608 C301.076869,87.0322602 302.277372,89.2860896 303.792143,90.5063192 C306.048274,92.3225503 309,91.84418 309,91.84418 Z" id="Path" fill="#FBBEBE" fill-rule="nonzero"></path>
                <path d="M309,91.84418 L304.728765,94.5105057 L297.71174,100 C297.71174,100 290.465904,96.0789327 292.296426,93.8047154 C292.637352,93.3550531 292.867142,92.8270946 292.966097,92.2660972 C293.516775,89.6468253 292.296426,85.884172 292.296426,85.884172 C292.296426,85.884172 301.842643,72.6293985 301.296525,82.9041608 C301.076869,87.0322602 302.277372,89.2860896 303.792143,90.5063192 C306.048274,92.3225503 309,91.84418 309,91.84418 Z" id="Path" fill="#000000" fill-rule="nonzero" opacity="0.1"></path>
                <ellipse id="Oval" fill="#000000" fill-rule="nonzero" opacity="0.1" cx="295" cy="80.5" rx="9" ry="9.5"></ellipse>
                <ellipse id="Oval" fill="#FBBEBE" fill-rule="nonzero" cx="295" cy="80.5" rx="9" ry="9.5"></ellipse>
                <path d="M309,92.2682907 L304.728765,94.7959649 L297.71174,100 C297.71174,100 290.465904,96.282832 292.296426,94.1268763 C292.637352,93.7005969 292.867142,93.2000928 292.966097,92.6682678 C300.959409,99.3294321 303.387899,92.434829 303.792143,91 C306.048274,92.7217853 309,92.2682907 309,92.2682907 Z" id="Path" fill="#000000" fill-rule="nonzero" opacity="0.1"></path>
                <path d="M291,117.629003 C291,117.629003 289.477588,117.813716 287.629061,118 C287.556425,116.301229 287.314779,114.379853 287.359255,113.208401 C287.433376,111.234926 287.433376,110.998107 286.840422,109.892957 C286.247468,108.787806 286.321586,107.919478 286.395707,106.498575 C286.466858,105.13765 286.128872,104.862961 284.926678,102.688977 C284.87478,102.594245 284.821417,102.496359 284.765084,102.393747 C284.175107,101.310704 284.006104,99.3514323 284.000187,97.5011067 C284.001672,97.4943561 284.001672,97.4873312 284.000187,97.4805806 C283.998702,97.0400898 284.006104,96.6059295 284.020918,96.192288 C284.022403,96.1749144 284.022403,96.1575627 284.022403,96.1401964 C284.065397,94.8897961 284.161741,93.8241196 284.21215,93.3173344 C284.416722,93.1089355 284.542721,93 284.542721,93 L285.283913,93.6315125 L289.508708,101.2886 L291,117.629003 Z" id="Path" fill="#000000" fill-rule="nonzero" opacity="0.1"></path>
                <path d="M314.068626,93.8118758 C314.062429,93.808751 315.004555,94.5261864 314.998347,94.524633 C312.193049,93.305263 310.601291,99.4473706 310.175071,101.380271 C310.096025,101.736252 310.057277,101.948585 310.057277,101.948585 C310.057277,101.948585 310.106884,102.466935 310.168849,103.291294 C310.378097,106.051664 310.737666,112.232833 309.902269,113.73636 C309.816572,113.895049 309.749475,114.063234 309.702327,114.237529 C309.438853,115.150893 309.469845,116.523268 309.606254,117.85662 C309.756908,119.227458 309.985109,120.588517 310.289745,121.933157 C310.289745,121.933157 312.149621,126.695105 311.374673,129.817695 C311.119174,130.979323 311.042853,132.173669 311.148394,133.358708 C311.228377,134.44673 311.392645,135.526791 311.639696,136.589027 C311.712538,136.899718 311.762145,137.077714 311.762145,137.077714 C310.593516,137.480515 309.451243,137.814631 308.335328,138.080062 C306.161995,138.605059 303.941642,138.90792 301.707973,138.984048 C291.229126,139.319731 284.251494,134.26113 282.603954,132.882517 C282.473766,132.773224 282.376122,132.687354 282.314122,132.628022 C281.229194,131.613182 283.321556,130.832535 283.089088,130.129964 C282.856619,129.427394 284.149231,127.866085 284.149231,127.866085 C284.149231,127.866085 283.864036,125.28995 285.02646,124.743495 C286.188884,124.19704 287.041321,122.32349 287.696926,120.762195 C288.350978,119.2009 287.583787,115.141536 287.66128,113.189916 C287.738773,111.238296 287.738777,111.004103 287.118818,109.911193 C286.49886,108.818283 286.576353,107.959573 286.653849,106.554407 C286.72824,105.208556 286.374861,104.936909 285.117917,102.787004 C285.063655,102.693321 285.007858,102.59652 284.948963,102.495044 C284.332117,101.423997 285.293409,99.5790421 285.287233,97.7492105 C285.288783,97.7429608 285.644109,97.7554529 285.642559,97.7492105 C285.641007,97.3135985 284.916412,96.7265138 284.931908,96.3174537 C284.933457,96.3002726 284.576582,95.9766956 284.576582,95.9595145 C284.628922,95.03791 284.571828,94.1133065 284.406512,93.2053407 C290.606094,90.0046878 292.078497,93.3396073 292.078497,93.3396073 C301.145385,101.200721 303.203654,91.3770589 303.203654,91.3770589 C308.138517,89.6783726 314.62948,94.254532 315,94.5199475 C315.010748,94.5277542 314.068626,93.8118758 314.068626,93.8118758 Z" id="Path" fill="#55536E" fill-rule="nonzero"></path>
                <path d="M281.139237,116.666397 C281.139237,116.666397 280.306152,120.877021 282.715537,123.226277 C283.53398,124.020384 284.798489,124.226244 285.849834,123.736536 C286.650053,123.363815 287.544983,122.810756 287.88088,122.101256 C288.54289,120.702887 286.465938,113.867422 281.139237,116.666397 Z" id="Path" fill="#FBBEBE" fill-rule="nonzero"></path>
                <path d="M310.275503,113.49637 C310.15742,113.655838 310.064965,113.824849 310,114 L310.489066,104.827849 L310.642804,103 C310.931154,105.773928 311.42661,111.985458 310.275503,113.49637 Z" id="Path" fill="#000000" fill-rule="nonzero" opacity="0.1"></path>
                <path d="M311.804731,129.840351 C311.540617,130.990252 311.461722,132.172542 311.570822,133.345619 C311.051721,134.252846 310.607922,135.02252 310.319527,135.523271 C310.093633,135.91275 309.962248,136.138381 309.962248,136.138381 C309.479387,136.732013 309.04497,137.36087 308.662902,138.019295 C308.365312,138.483064 308.179685,139.005472 308.119768,139.547829 C308.119768,140.736344 306.878097,148.657195 300.990168,146.68665 C297.188252,145.414669 299.615525,141.51684 301.812077,138.914156 C302.543196,138.049296 303.325271,137.225714 304.154429,136.447488 C304.154429,136.447488 304.833742,135.612898 305.48583,134.739676 C305.930591,134.188711 306.31653,133.595823 306.637771,132.970037 C306.918148,132.19727 308.767052,128.797094 308.767052,128.797094 C308.767052,128.797094 310.603118,125.049176 310.20258,123.310449 C309.978292,122.336762 309.954237,119.930368 309.976687,118 C310.13242,119.357 310.368316,120.70432 310.683224,122.035386 C310.683224,122.035386 312.60581,126.749282 311.804731,129.840351 Z" id="Path" fill="#000000" fill-rule="nonzero" opacity="0.1"></path>
                <path d="M315.271474,94.0846504 C315.271474,94.0846504 318.07632,96.0332659 317.998406,101.09966 C317.920492,106.166054 316.985547,114.934813 316.985547,114.934813 L316.401204,120.390928 C316.401204,120.390928 315.661034,122.612348 315.777905,123.274878 C315.894776,123.937407 309.661769,135.04451 309.661769,135.04451 C309.661769,135.04451 307.869785,137.285933 307.869785,138.484073 C307.869785,139.682213 306.662144,147.671523 300.935582,145.683938 C295.20902,143.696353 304.013122,135.356288 304.013122,135.356288 C304.013122,135.356288 306.155712,132.628231 306.428405,131.848785 C306.701097,131.06934 308.500022,127.639787 308.500022,127.639787 C308.500022,127.639787 310.285097,123.859479 309.895537,122.105725 C309.505976,120.351972 309.739712,113.984797 309.739712,113.984797 L310.129272,104.022604 L310.285097,101.489406 C310.285097,101.489406 311.72646,93.071373 315.271474,94.0846504 Z" id="Path" fill="#FBBEBE" fill-rule="nonzero"></path>
                <path d="M285.672841,112.740733 L290.01321,111.126448 C290.743303,110.854907 291.560543,111.028193 292.125264,111.574284 L297.885462,117.144469 C297.885462,117.144469 298.203622,118.03854 297.77941,117.998708 C297.355198,117.958875 291.151083,111.606514 291.151083,111.606514 L285,113.723965 L285,113.723965 C285,113.283948 285.268917,112.890966 285.672841,112.740733 L285.672841,112.740733 Z" id="Path" fill="#AD1B1B" fill-rule="nonzero"></path>
                <polygon id="Path" fill="#4B4B5B" fill-rule="nonzero" points="291.931478 120 298 117.94246 291.257363 112 285 113.968323"></polygon>
                <circle id="Oval" fill="#F2F2F2" fill-rule="nonzero" cx="282.5" cy="137.5" r="1"></circle>
                <circle id="Oval" fill="#F2F2F2" fill-rule="nonzero" cx="279.5" cy="143.5" r="1"></circle>
                <circle id="Oval" fill="#F2F2F2" fill-rule="nonzero" cx="307.5" cy="146.5" r="1"></circle>
                <circle id="Oval" fill="#F2F2F2" fill-rule="nonzero" cx="310.5" cy="155.5" r="1"></circle>
                <circle id="Oval" fill="#F2F2F2" fill-rule="nonzero" cx="309.5" cy="153.5" r="1"></circle>
                <circle id="Oval" fill="#F2F2F2" fill-rule="nonzero" cx="308.5" cy="149.5" r="1"></circle>
                <circle id="Oval" fill="#F2F2F2" fill-rule="nonzero" cx="280.5" cy="140.5" r="1"></circle>
                <circle id="Oval" fill="#F2F2F2" fill-rule="nonzero" cx="277.5" cy="147.5" r="1"></circle>
                <path d="M315,93.5835547 L314.998443,93.5883284 C312.179566,92.346924 310.580103,98.6000218 310.15182,100.56785 L305.724146,94.1001458 C305.724146,94.1001458 303.908211,97.0661623 298.041489,97.5175864 C292.174781,97.967418 290.7482,92.9604693 290.7482,92.9604693 C289.943019,92.8968875 286.297162,99.5950723 284.973375,102 C284.918851,101.904624 284.862784,101.806073 284.803603,101.702764 C284.183772,100.612363 284.006216,98.6397786 284,96.7768812 C284.00156,96.7700847 284.00156,96.7630122 284,96.7562157 C284.004642,96.3238647 284.012454,95.8899321 284.02178,95.4591699 C284.02334,95.4416784 284.02334,95.4242087 284.02334,95.4067244 C284.087198,93.6423664 284.258508,92.2451924 284.258508,92.2451924 C290.4881,88.9867026 291.96763,92.3818853 291.96763,92.3818853 C301.078407,100.385053 303.146639,90.3838729 303.146639,90.3838729 C308.105396,88.6544907 314.62778,93.3133358 315,93.5835547 Z" id="Path" fill="#AD1B1B" fill-rule="nonzero"></path>
                <path d="M281,152 C281.074818,152.191085 287.359404,159.60513 289.678712,159.987299 C291.998019,160.369468 281,152 281,152 Z" id="Path" fill="#000000" fill-rule="nonzero" opacity="0.1"></path>
                <path d="M284.999632,140 C284.999632,140 285.064928,145.601357 283.457089,146.86635 C281.84925,148.131344 284.999632,140 284.999632,140 Z" id="Path" fill="#000000" fill-rule="nonzero" opacity="0.1"></path>
                <path d="M288.63096,142 C288.63096,142 288.461742,148.472363 291,150 C291,150 286.34653,145.698482 288.63096,142 Z" id="Path" fill="#000000" fill-rule="nonzero" opacity="0.1"></path>
                <path d="M286,174 C286,174 281.419214,176.789205 280.151318,176.990836 C278.883423,177.192467 286,174 286,174 Z" id="Path" fill="#000000" fill-rule="nonzero" opacity="0.1"></path>
                <path d="M284.552303,74.8077007 C283.619711,75.6130627 283.955596,77.2848524 284.908412,78.0649592 C285.861228,78.845066 287.164014,78.9648366 288.383148,78.9970585 C290.729742,79.0590795 293.114478,78.9195857 295.389782,79.5111376 C296.393512,79.7243338 297.322243,80.2119164 298.077503,80.9221883 C298.777372,81.7304588 299.258916,82.7121834 299.474382,83.7700062 C299.873026,85.3264876 300.034213,86.9368226 299.952218,88.5438329 C299.896779,89.6240126 299.731787,90.7108829 299.883059,91.7813863 C300.071041,92.7860947 300.40328,93.7567043 300.868946,94.6615822 C302.658792,98.5529402 304.652088,102.342555 306.840151,106.013923 C307.013205,106.37468 307.283086,106.677358 307.618115,106.886427 C308.176335,107.1626 308.832617,106.882614 309.390125,106.604945 C309.065007,105.486961 308.88124,104.330837 308.843328,103.164906 C309.435557,103.32511 310.063349,103.100329 310.429381,102.597019 C310.778199,102.09829 311.024058,101.531867 311.151916,100.932406 L312.191991,97.2596668 C312.513611,96.123946 312.9906,94.8204578 314.097446,94.4860962 C314.494242,94.4280045 314.885345,94.3345949 315.266319,94.206927 C315.779081,93.8955868 316.062671,93.3020861 315.988248,92.6960651 C315.904546,92.1029683 315.663099,91.5449451 315.290385,91.0831872 C313.725597,88.9255266 311.116225,87.6459678 309.894766,85.2668293 C308.845812,83.2237233 309.027976,80.7651288 309.374037,78.4838692 C309.720098,76.2026096 310.201549,73.8573021 309.669118,71.6140506 C309.130184,69.5673633 307.911063,67.7776538 306.222112,66.553732 C304.537419,65.344223 302.611861,64.5328462 300.584243,64.1780914 C299.648449,63.9341027 298.667144,63.9409223 297.734664,64.1978946 C297.031838,64.4413149 296.429879,64.9218682 295.743882,65.2113167 C294.185381,65.868907 292.388838,65.4761348 290.753651,65.8947143 C289.250104,66.3369944 287.944555,67.3036755 287.062627,68.6276978 C286.192161,69.9454014 285.539155,71.400891 285.129769,72.9358599 C284.828645,73.9430891 285.311606,74.3460352 284.43355,74.8937601" id="Path" fill="#000000" fill-rule="nonzero" opacity="0.1"></path>
                <path d="M284.552303,73.8077 C283.619711,74.613062 283.955596,76.2848518 284.908412,77.0649586 C285.861228,77.8450654 287.164014,77.9648359 288.383148,77.9970578 C290.729742,78.0590789 293.114478,77.9195851 295.389782,78.511137 C296.393512,78.7243332 297.322243,79.2119158 298.077503,79.9221877 C298.777372,80.7304576 299.258916,81.7121826 299.474378,82.7700056 C299.873026,84.3264865 300.034214,85.9368219 299.952218,87.5438324 C299.896779,88.6240122 299.731787,89.7108826 299.883059,90.7813859 C300.071041,91.7860944 300.40328,92.756704 300.868946,93.6615819 C302.658792,97.55294 304.652088,101.342555 306.840151,105.013923 C307.013205,105.37468 307.283086,105.677358 307.618115,105.886427 C308.176335,106.1626 308.832617,105.882614 309.390125,105.604945 C309.065007,104.486961 308.88124,103.330837 308.843328,102.164906 C309.435557,102.32511 310.063349,102.100329 310.429381,101.597019 C310.778199,101.09829 311.024058,100.531867 311.151916,99.9324063 L312.191991,96.2596666 C312.513611,95.1239458 312.9906,93.8204575 314.097446,93.486096 C314.494242,93.4280042 314.885345,93.3345946 315.266319,93.2069268 C315.779081,92.8955865 316.062671,92.3020858 315.988248,91.6960648 C315.904546,91.102968 315.663099,90.5449447 315.290385,90.0831869 C313.725597,87.9255262 311.116225,86.6459674 309.894766,84.2668288 C308.845812,82.2237227 309.027976,79.7651282 309.374037,77.4838686 C309.720098,75.2026089 310.201549,72.8573013 309.669118,70.6140498 C309.130184,68.5673624 307.911063,66.7776529 306.222112,65.5537311 C304.537419,64.344222 302.611861,63.5328453 300.584243,63.1780904 C299.648448,62.9341031 298.667144,62.9409226 297.734664,63.1978936 C297.031838,63.441314 296.429879,63.9218672 295.743882,64.2112976 C294.185381,64.8688879 292.388838,64.4761157 290.753651,64.8946952 C289.250104,65.3369753 287.944555,66.3036564 287.062627,67.6276788 C286.192161,68.9453824 285.539155,70.400872 285.129769,71.935841 C284.828645,72.9430702 285.311606,73.3460163 284.43355,73.8937413" id="Path" fill="#3F3D56" fill-rule="nonzero"></path>
                <path d="M283,116.983722 C283,116.983722 290.525362,111.883841 292.663717,115.019014 C294.802071,118.154187 286.043045,122 286.043045,122 L283,116.983722 Z" id="Path" fill="#FBBEBE" fill-rule="nonzero"></path>
                <path d="M286.352874,93.745338 C286.327865,94.2127113 286.243988,94.785742 286,94.8705069 C286.635774,94.8543447 287.262418,95.3536707 287.893351,95.2044647 C288.363171,95.0933593 288.805012,94.6069667 289.0885,93.8888116 C289.11693,93.7814555 289.172248,93.6844064 289.248502,93.608107 C289.314792,93.5666902 289.386722,93.6080013 289.452958,93.6497278 C290.685481,94.435411 291.834629,95.3613097 292.880289,96.4112172 C293.229359,96.7582178 293.616665,97.1341135 293.99912,96.9528601 C294.01682,95.6367444 293.767373,94.3321379 293.267919,93.1286785 C292.865199,92.1637537 292.180421,91.3640727 291.316162,90.8494236 C290.598641,90.4753896 289.818186,90.2585817 289.020871,90.2117989 C288.67684,90.204361 288.33876,90.1146024 288.031554,89.9491405 C287.693068,89.7368455 286.612411,88.3584313 286.369771,89.3622253 C286.252626,89.8468395 286.403609,90.8791606 286.40717,91.4152642 C286.412332,92.1930609 286.394281,92.971437 286.352874,93.745338 Z" id="Path" fill="#3F3D56" fill-rule="nonzero"></path>
                <g id="Group" opacity="0.1" transform="translate(284.000000, 67.000000)" fill="#000000" fill-rule="nonzero">
                    <path d="M25.0553805,37.7597714 C24.7125911,37.5538256 24.4364573,37.2556734 24.2593915,36.9003116 C22.0206289,33.2838196 19.9811497,29.5508456 18.1498368,25.7176483 C17.6733757,24.8262983 17.3334367,23.870197 17.1410993,22.8805057 C16.9863257,21.8259994 17.155137,20.7553778 17.2118644,19.6913433 C17.2957601,18.1083536 17.1308377,16.5220888 16.7229531,14.9888736 C16.502498,13.9468603 16.0097989,12.979807 15.2937158,12.1836143 C14.5209557,11.4839608 13.5707066,11.0036685 12.5437207,10.7936615 C10.2157012,10.2109514 7.77570659,10.3483566 5.37474264,10.287259 C4.12735352,10.2555223 2.79438198,10.1375348 1.81949308,9.36909523 C1.04683968,8.75306894 0.726269231,7.73853827 1.0072144,6.79842275 C0.944375068,6.85689091 0.876754453,6.91014489 0.80504044,6.95764294 C-0.125773516,7.75687459 0.218347582,9.38607991 1.18677791,10.149428 C2.16166681,10.9178675 3.49463835,11.0358515 4.74202747,11.0675917 C7.14298418,11.1286894 9.58297879,10.9912841 11.9110055,11.5739942 C12.9379914,11.7840013 13.8882405,12.2642936 14.6610007,12.9639471 C15.3770838,13.7601397 15.8697829,14.7271931 16.0902379,15.7692063 C16.4981225,17.3024215 16.663045,18.8886864 16.5791492,20.4716761 C16.5224219,21.535707 16.3536105,22.6063321 16.5083842,23.6608384 C16.7007221,24.6505296 17.040661,25.6066308 17.5171216,26.4979811 C19.3484345,30.3311784 21.3879137,34.0641523 23.6266764,37.6806443 C23.8037422,38.0360061 24.0798759,38.3341583 24.4226654,38.5401041 C24.9938192,38.812156 25.6653112,38.5363508 26.2357325,38.262832 C26.1883104,38.1059268 26.1446453,37.9479696 26.1030907,37.7894364 C25.7624033,37.9092979 25.3885405,37.8987123 25.0553805,37.7597714 Z" id="Path"></path>
                    <path d="M0.700930879,7.02564606 C0.739229011,7.00263963 0.771645165,6.98020569 0.805062198,6.9576644 C0.811270549,6.95233321 0.816119011,6.94613972 0.82243978,6.94088367 L0.700930879,7.02564606 Z" id="Path"></path>
                    <path d="M1.43777736,6.17731376 C1.40436396,6.19985505 1.37194418,6.2223033 1.33364604,6.24529541 L1.45515495,6.16051872 C1.44883418,6.16577477 1.44398571,6.17196826 1.43777736,6.17730303 C2.18802692,5.67112954 1.75103802,5.26653853 2.046,4.31665954 C2.45970793,2.83249842 3.11132291,1.42316827 3.97615912,0.142060183 C3.76792496,0.368277507 3.57254748,0.605698986 3.39092407,0.853234128 C2.50028987,2.15124059 1.83215491,3.58497427 1.41328484,5.09699945 C1.32073575,5.51270519 1.26890373,5.93622643 1.25850396,6.36171936 C1.31280777,6.2953063 1.37278542,6.23361162 1.43777736,6.17731376 L1.43777736,6.17731376 Z" id="Path"></path>
                    <path d="M32.8808156,25.2697924 C32.491014,25.3955516 32.090849,25.487565 31.6848593,25.5447889 C31.1064014,25.7407162 30.6304898,26.1552942 30.3617733,26.6973606 C30.5630427,26.5271 30.798211,26.4003015 31.0521442,26.3251252 C31.4581338,26.2679029 31.8582989,26.1758908 32.2481004,26.0501323 C32.5649683,25.8825739 32.8009275,25.5971379 32.9035892,25.2571979 C32.8958651,25.2612195 32.8886631,25.2659353 32.8808156,25.2697924 Z" id="Path"></path>
                    <path d="M26.3089816,34.0938716 C26.3180766,34.3643813 26.3357153,34.6344294 26.3618977,34.9040161 C26.7299804,34.8112396 27.0583613,34.6047876 27.2990868,34.3148083 C27.4215492,34.1658606 27.526965,34.0040243 27.6134173,33.8322424 C27.2503249,34.1292269 26.7607761,34.2274151 26.3089816,34.0938716 Z" id="Path"></path>
                </g>
                <path d="M282,116 C282,116 283.889987,114.765549 285,115.039742" id="Path" fill="#000000" fill-rule="nonzero" opacity="0.1"></path>
                <path d="M287,125 C287,125 287.94927,126.348059 292.748279,126.915662 C297.547288,127.483265 287,125 287,125 Z" id="Path" fill="#000000" fill-rule="nonzero" opacity="0.1"></path>
                <path d="M286,130 C286,130 290.379074,134.203249 297.403329,132.659198 C304.427583,131.115146 286,130 286,130 Z" id="Path" fill="#000000" fill-rule="nonzero" opacity="0.1"></path>
                <path d="M15,98.6841948 C15,108.059289 21.1787878,116.160371 30.138511,120 L17.3255439,89.0454608 C15.8008295,92.0313926 15.0040802,95.3336976 15,98.6841948 Z M59.993871,97.4890413 C59.993871,94.562001 58.8014579,92.5349286 57.7787289,90.9571461 C56.4171357,89.0062235 55.1414066,87.3541136 55.1414066,85.4032019 C55.1414066,83.2260577 57.0135887,81.1994374 59.6514221,81.1994374 C59.7705119,81.1994374 59.8834691,81.2125069 60,81.2183655 C54.8446058,77.1393929 48.4424691,74.9450262 41.8607682,75.0010466 C32.4768241,75.0010466 24.220893,79.2462727 19.4180116,85.6763023 C20.0481906,85.6929774 20.6426246,85.7042423 21.146595,85.7042423 C23.9561567,85.7042423 28.3051761,85.4036539 28.3051761,85.4036539 C29.7531481,85.3283938 29.9238579,87.2035934 28.4779265,87.3545764 C28.4779265,87.3545764 27.0222886,87.5055487 25.4030994,87.5803568 L35.1846861,113.234224 L41.0634497,97.6895831 L36.8779853,87.5799083 C35.4315608,87.5050967 34.0612689,87.354128 34.0612689,87.354128 C32.6138079,87.2793163 32.7834956,85.3279561 34.2309565,85.4032055 C34.2309565,85.4032055 38.6668622,85.7037975 41.3062287,85.7037975 C44.1152794,85.7037975 48.4648062,85.4032055 48.4648062,85.4032055 C49.9137968,85.3279453 50.0839811,87.2031449 48.6370491,87.354128 C48.6370491,87.354128 47.1788597,87.5050967 45.5627331,87.5799083 L55.2696989,113.039544 L57.9484094,105.145318 C59.1101556,101.869465 59.9938638,99.5165657 59.9938638,97.4890413 L59.993871,97.4890413 Z" id="Shape" fill="#AD1B1B" fill-rule="nonzero"></path>
                <path d="M42.9544291,101.416113 L35,122.036015 C40.3603955,123.438794 46.0022071,123.30836 51.2932412,121.659331 C51.219951,121.557196 51.1567587,121.448065 51.1045699,121.333502 L42.9544291,101.416113 Z M65.7522499,88 C65.8726897,88.8049508 65.9323876,89.6179558 65.9308294,90.4320153 C65.9308294,92.8320735 65.4283786,95.5300594 63.9149839,98.9035528 L55.8167903,119.791228 C63.6985664,115.690913 69,108.0731 69,99.3472933 C68.9932707,95.3326202 67.8678879,91.4006782 65.7522286,88 L65.7522499,88 Z" id="Shape" fill="#AD1B1B" fill-rule="nonzero"></path>
            </g>
        </g>
    </g>
</svg>