<?xml version="1.0" encoding="UTF-8"?>
<svg width="150px" height="30px" viewBox="0 0 150 30" version="1.1" xmlns="http://www.w3.org/2000/svg" xmlns:xlink="http://www.w3.org/1999/xlink">
    <!-- Generator: Sketch 64 (93537) - https://sketch.com -->
    <title>Logo</title>
    <desc>Created with Sketch.</desc>
    <g id="Welcome" stroke="none" stroke-width="1" fill="none" fill-rule="evenodd">
        <g id="Desktop-FULL" transform="translate(-280.000000, -25.000000)" fill-rule="nonzero">
            <g id="Logo" transform="translate(280.000000, 25.000000)">
                <path d="M14.0104478,12.6519945 C14.0104478,13.6588771 13.7509976,14.5667085 13.2320896,15.3755158 C12.7131815,16.1843232 11.9595406,16.8239316 10.9711443,17.2943604 C9.98274796,17.7647892 8.8049267,18 7.43764511,18 C5.34553958,18 3.61999021,17.5089458 2.26094527,16.5268226 C0.901900333,15.5446993 0.164732473,14.1045487 0.0494195688,12.2063274 L5.88092869,12.2063274 C5.96329502,13.21321 6.40806673,13.7166437 7.21525705,13.7166437 C7.49530266,13.7166437 7.72180679,13.6423666 7.89477612,13.4938102 C8.06774545,13.3452537 8.15422886,13.1306754 8.15422886,12.8500688 C8.15422886,12.437412 7.94419779,12.111418 7.52412935,11.872077 C7.13206546,11.6486921 6.5139972,11.3929586 5.66990792,11.1048696 L5.48557214,11.042641 C4.38186292,10.679503 3.46349178,10.3081175 2.73043118,9.92847318 C1.99737057,9.5488289 1.35904086,8.98762405 0.815422886,8.24484182 C0.27180491,7.50205959 0,6.53645712 0,5.3480055 C0,4.20907272 0.292396189,3.23934376 0.877197347,2.43878955 C1.4619985,1.63823534 2.26094021,1.03163893 3.27404643,0.618982118 C4.28715266,0.206325309 5.42790965,0 6.69635158,0 C8.7884571,0 10.4522326,0.48692773 11.687728,1.4607978 C12.9232234,2.43466787 13.5986175,3.83767997 13.7139303,5.6698762 L7.80829187,5.6698762 C7.72592549,4.74552497 7.34704595,4.28335626 6.67164179,4.28335626 C6.44101596,4.28335626 6.25157619,4.35350685 6.10331675,4.49381018 C5.95505731,4.63411351 5.88092869,4.84456533 5.88092869,5.12517194 C5.88092869,5.50481622 6.09095975,5.81430417 6.51102819,6.05364512 C6.87108687,6.25879449 7.40360338,6.4912267 8.10859009,6.75094702 L8.47545605,6.88308116 C9.59563854,7.27923171 10.5222462,7.67124979 11.2553068,8.05914718 C11.9883674,8.44704457 12.6308154,9.01650243 13.18267,9.76753783 C13.7345246,10.5185732 14.0104478,11.4800492 14.0104478,12.6519945 Z M24.3391376,0.123796424 C25.8546787,0.123796424 27.209585,0.408525353 28.4038972,0.977991747 C29.5982094,1.54745815 30.5701179,2.35212685 31.3196517,3.39202201 C32.0691856,4.43191718 32.5674946,5.64510997 32.8145937,7.03163686 L27.0325041,7.03163686 C26.7689318,6.45391731 26.3941705,6.00412818 25.908209,5.68225585 C25.4222474,5.36038351 24.8662828,5.19944979 24.2402985,5.19944979 C23.3177953,5.19944979 22.5888639,5.5460763 22.0534826,6.23933975 C21.5181013,6.9326032 21.2504146,7.86519358 21.2504146,9.03713893 C21.2504146,10.2090843 21.5181013,11.1416747 22.0534826,11.8349381 C22.5888639,12.5282016 23.3177953,12.8748281 24.2402985,12.8748281 C24.8662828,12.8748281 25.4222474,12.7138943 25.908209,12.392022 C26.3941705,12.0701497 26.7689318,11.6203605 27.0325041,11.042641 L32.8145937,11.042641 C32.5674946,12.4291679 32.0691856,13.6423607 31.3196517,14.6822558 C30.5701179,15.722151 29.5982094,16.5268197 28.4038972,17.0962861 C27.209585,17.6657525 25.8546787,17.9504814 24.3391376,17.9504814 C22.5764976,17.9504814 21.0445062,17.5749694 19.7431177,16.823934 C18.4417293,16.0728986 17.440993,15.0206395 16.7408789,13.6671252 C16.0407649,12.3136108 15.6907131,10.7702975 15.6907131,9.03713893 C15.6907131,7.3039803 16.0407649,5.76066703 16.7408789,4.40715268 C17.440993,3.05363835 18.4417293,2.00137927 19.7431177,1.25034388 C21.0445062,0.49930849 22.5764976,0.123796424 24.3391376,0.123796424 Z M51.2233831,0.297111417 L51.2233831,17.826685 L45.7378109,17.826685 L45.7378109,10.9931224 L40.5240464,10.9931224 L40.5240464,17.826685 L35.0384743,17.826685 L35.0384743,0.297111417 L40.5240464,0.297111417 L40.5240464,6.61072902 L45.7378109,6.61072902 L45.7378109,0.297111417 L51.2233831,0.297111417 Z M62.466335,0 C64.1136622,0 65.6209438,0.383765073 66.9882255,1.15130674 C68.3555073,1.9188484 69.4386086,2.98761351 70.2375622,4.35763411 C71.0365157,5.72765473 71.4359867,7.27096801 71.4359867,8.98762036 C71.4359867,10.7042727 71.0365157,12.247586 70.2375622,13.6176066 C69.4386086,14.9876272 68.3513886,16.0605188 66.9758706,16.8363136 C65.6003527,17.6121084 64.0971892,18 62.466335,18 C60.8190078,18 59.3076075,17.6121084 57.9320896,16.8363136 C56.5565716,16.0605188 55.4652334,14.9876272 54.6580431,13.6176066 C53.8508528,12.247586 53.4472637,10.7042727 53.4472637,8.98762036 C53.4472637,7.27096801 53.8508528,5.72765473 54.6580431,4.35763411 C55.4652334,2.98761351 56.5565716,1.9188484 57.9320896,1.15130674 C59.3076075,0.383765073 60.8190078,0 62.466335,0 Z M62.466335,5.07565337 C61.3626257,5.07565337 60.5142652,5.42640641 59.9212272,6.12792297 C59.3281892,6.82943953 59.031675,7.78266246 59.031675,8.98762036 C59.031675,10.176072 59.3281892,11.1210419 59.9212272,11.8225585 C60.5142652,12.524075 61.3626257,12.8748281 62.466335,12.8748281 C63.5535708,12.8748281 64.393695,12.524075 64.986733,11.8225585 C65.579771,11.1210419 65.8762852,10.176072 65.8762852,8.98762036 C65.8762852,7.78266246 65.579771,6.82943953 64.986733,6.12792297 C64.393695,5.42640641 63.5535708,5.07565337 62.466335,5.07565337 Z M87.3985075,0.297111417 L87.3985075,4.65474553 L82.753068,4.65474553 L82.753068,17.826685 L77.2674959,17.826685 L77.2674959,4.65474553 L72.671476,4.65474553 L72.671476,0.297111417 L87.3985075,0.297111417 Z M110.156219,0.297111417 L110.156219,17.826685 L104.695357,17.826685 L104.695357,9.0866575 L102.00199,17.826685 L97.307131,17.826685 L94.6137645,9.0866575 L94.6137645,17.826685 L89.1281924,17.826685 L89.1281924,0.297111417 L95.8492537,0.297111417 L99.7039801,10.8198074 L103.459867,0.297111417 L110.156219,0.297111417 Z M124.092537,15.1774415 L118.261028,15.1774415 L117.396186,17.826685 L111.638806,17.826685 L118.03864,0.297111417 L124.364345,0.297111417 L130.739469,17.826685 L124.95738,17.826685 L124.092537,15.1774415 Z M122.758209,11.042641 L121.176783,6.1650619 L119.595357,11.042641 L122.758209,11.042641 Z M149,17.826685 L143.514428,17.826685 L137.707629,9.01237964 L137.707629,17.826685 L132.222056,17.826685 L132.222056,0.297111417 L137.707629,0.297111417 L143.514428,9.25997249 L143.514428,0.297111417 L149,0.297111417 L149,17.826685 Z" id="SCHOTMAN" fill="#AD1B1B"></path>
                <path d="M7.97370662,26.0055021 C7.97370662,26.7464503 7.81593203,27.4140273 7.50037812,28.0082531 C7.1848242,28.6024789 6.73429009,29.0701496 6.14876228,29.4112792 C5.56323446,29.7524089 4.88129762,29.9229711 4.1029313,29.9229711 L1,29.9229711 L1,22.1320495 L4.1029313,22.1320495 C4.88129762,22.1320495 5.56323446,22.2971098 6.14876228,22.6272352 C6.73429009,22.957359 7.1848242,23.4158613 7.50037812,24.002751 C7.81593203,24.5896407 7.97370662,25.2572177 7.97370662,26.0055021 Z M3.89256308,27.7441541 C4.41848627,27.7441541 4.8357124,27.5937658 5.14425401,27.2929849 C5.45279561,26.9922039 5.6070641,26.5630473 5.6070641,26.0055021 C5.6070641,25.4479569 5.45279561,25.0188002 5.14425401,24.7180193 C4.8357124,24.4172383 4.41848627,24.2668501 3.89256308,24.2668501 L3.33508728,24.2668501 L3.33508728,27.7441541 L3.89256308,27.7441541 Z M18.263487,24.0687758 L18.263487,25.0371389 L20.5775375,25.0371389 L20.5775375,26.8748281 L18.263487,26.8748281 L18.263487,27.9752407 L20.8930898,27.9752407 L20.8930898,29.9229711 L15.9283997,29.9229711 L15.9283997,22.1320495 L20.8930898,22.1320495 L20.8930898,24.0687758 L18.263487,24.0687758 Z M30.846281,22.1320495 L32.381969,27.4910591 L33.9071387,22.1320495 L36.3894837,22.1320495 L33.8861018,29.9229711 L30.8673178,29.9229711 L28.363936,22.1320495 L30.846281,22.1320495 Z M46.3637117,24.0687758 L46.3637117,25.0371389 L48.6777622,25.0371389 L48.6777622,26.8748281 L46.3637117,26.8748281 L46.3637117,27.9752407 L48.9933145,27.9752407 L48.9933145,29.9229711 L44.0286245,29.9229711 L44.0286245,22.1320495 L48.9933145,22.1320495 L48.9933145,24.0687758 L46.3637117,24.0687758 Z M59.3251686,28.0742779 L61.5761086,28.0742779 L61.5761086,29.9229711 L56.9900813,29.9229711 L56.9900813,22.1320495 L59.3251686,22.1320495 L59.3251686,28.0742779 Z M73.0544694,22 C73.7557003,22 74.3973171,22.1705623 74.9793386,22.5116919 C75.5613602,22.8528215 76.0224127,23.3278282 76.3625097,23.9367263 C76.7026068,24.5456243 76.8726527,25.2315413 76.8726527,25.9944979 C76.8726527,26.7574545 76.7026068,27.4433716 76.3625097,28.0522696 C76.0224127,28.6611676 75.5596073,29.1380084 74.9740794,29.4828061 C74.3885516,29.8276037 73.7486882,30 73.0544694,30 C72.3532385,30 71.7098688,29.8276037 71.1243409,29.4828061 C70.5388131,29.1380084 70.0742548,28.6611676 69.7306515,28.0522696 C69.3870481,27.4433716 69.2152493,26.7574545 69.2152493,25.9944979 C69.2152493,25.2315413 69.3870481,24.5456243 69.7306515,23.9367263 C70.0742548,23.3278282 70.5388131,22.8528215 71.1243409,22.5116919 C71.7098688,22.1705623 72.3532385,22 73.0544694,22 Z M73.0544694,24.2558459 C72.5846446,24.2558459 72.223516,24.4117362 71.971073,24.7235213 C71.7186301,25.0353065 71.5924102,25.4589611 71.5924102,25.9944979 C71.5924102,26.5226987 71.7186301,26.9426853 71.971073,27.2544704 C72.223516,27.5662556 72.5846446,27.7221458 73.0544694,27.7221458 C73.5172816,27.7221458 73.8749044,27.5662556 74.1273473,27.2544704 C74.3797903,26.9426853 74.5060101,26.5226987 74.5060101,25.9944979 C74.5060101,25.4589611 74.3797903,25.0353065 74.1273473,24.7235213 C73.8749044,24.4117362 73.5172816,24.2558459 73.0544694,24.2558459 Z M87.162433,27.4470426 L87.162433,29.9229711 L84.8273458,29.9229711 L84.8273458,22.1320495 L88.0880532,22.1320495 C88.9996534,22.1320495 89.6991209,22.3741379 90.1864763,22.8583219 C90.6738316,23.3425059 90.9175058,23.9917428 90.9175058,24.8060523 C90.9175058,25.2975724 90.8088165,25.743235 90.5914351,26.1430536 C90.3740537,26.5428722 90.0532453,26.8601547 89.6290005,27.0949106 C89.2047556,27.3296665 88.6911116,27.4470426 88.0880532,27.4470426 L87.162433,27.4470426 Z M87.8250929,25.5213205 C88.3089425,25.5213205 88.5508633,25.2829001 88.5508633,24.8060523 C88.5508633,24.3292044 88.3089425,24.090784 87.8250929,24.090784 L87.162433,24.090784 L87.162433,25.5213205 L87.8250929,25.5213205 Z M107.718183,22.1320495 L107.718183,29.9229711 L105.393614,29.9229711 L105.393614,26.0385144 L104.247107,29.9229711 L102.248609,29.9229711 L101.102102,26.0385144 L101.102102,29.9229711 L98.7670148,29.9229711 L98.7670148,22.1320495 L101.628023,22.1320495 L103.268895,26.8088033 L104.867693,22.1320495 L107.718183,22.1320495 Z M118.218331,24.0687758 L118.218331,25.0371389 L120.532382,25.0371389 L120.532382,26.8748281 L118.218331,26.8748281 L118.218331,27.9752407 L120.847934,27.9752407 L120.847934,29.9229711 L115.883244,29.9229711 L115.883244,22.1320495 L120.847934,22.1320495 L120.847934,24.0687758 L118.218331,24.0687758 Z M135.986702,29.9229711 L133.651615,29.9229711 L131.179788,26.0055021 L131.179788,29.9229711 L128.844701,29.9229711 L128.844701,22.1320495 L131.179788,22.1320495 L133.651615,26.1155433 L133.651615,22.1320495 L135.986702,22.1320495 L135.986702,29.9229711 Z M150,22.1320495 L150,24.0687758 L148.022539,24.0687758 L148.022539,29.9229711 L145.687451,29.9229711 L145.687451,24.0687758 L143.731027,24.0687758 L143.731027,22.1320495 L150,22.1320495 Z" id="DEVELOPMENT" fill="#313131"></path>
            </g>
        </g>
    </g>
</svg>