<?xml version="1.0" encoding="UTF-8"?>
<svg width="150px" height="30px" viewBox="0 0 150 30" version="1.1" xmlns="http://www.w3.org/2000/svg" xmlns:xlink="http://www.w3.org/1999/xlink">
    <!-- Generator: Sketch 64 (93537) - https://sketch.com -->
    <title>Logo-white</title>
    <desc>Created with Sketch.</desc>
    <g id="Welcome" stroke="none" stroke-width="1" fill="none" fill-rule="evenodd">
        <g id="Desktop-FULL" transform="translate(-280.000000, -25.000000)" fill-rule="nonzero">
            <g id="Menu" transform="translate(280.000000, 25.000000)">
                <g id="Logo-white">
                    <g id="SCHOTMAN">
                        <g id="path-1-link" fill="#000000">
                            <path d="M14.2908838,12.4338857 C14.2908838,13.4168621 14.0319726,14.3031389 13.5141426,15.0927429 C12.9963126,15.8823468 12.2442373,16.5067691 11.2578944,16.9660286 C10.2715514,17.425288 9.09617703,17.6549143 7.73173592,17.6549143 C5.64397667,17.6549143 3.92201206,17.1755191 2.56579049,16.2167143 C1.20956892,15.2579095 0.4739325,13.8519521 0.358859155,11.9988 L6.17825352,11.9988 C6.26044874,12.9817763 6.70429645,13.4732571 7.50980986,13.4732571 C7.78927368,13.4732571 8.01530726,13.4007436 8.18791725,13.2557143 C8.36052725,13.110685 8.44683099,12.9012014 8.44683099,12.6272571 C8.44683099,12.224398 8.23723625,11.906144 7.81804049,11.6724857 C7.4267911,11.4544046 6.81000686,11.2047429 5.96767114,10.923494 L5.78371831,10.8627429 C4.682302,10.5082268 3.76583875,10.145659 3.03430106,9.77502857 C2.30276336,9.40439813 1.66575975,8.85651789 1.12327113,8.13137143 C0.580782499,7.40622497 0.309542254,6.46354867 0.309542254,5.30331429 C0.309542254,4.19142302 0.601331,3.2447182 1.18491725,2.46317143 C1.7685035,1.68162467 2.56578544,1.08943059 3.57678697,0.686571429 C4.5877885,0.283712271 5.72617561,0.0822857143 6.99198239,0.0822857143 C9.07974164,0.0822857143 10.7400607,0.557652389 11.9729894,1.5084 C13.2059181,2.45914761 13.8799091,3.8288482 13.9949824,5.61754286 L8.10161268,5.61754286 C8.0194174,4.71513837 7.64132497,4.26394286 6.96732394,4.26394286 C6.73717723,4.26394286 6.54813102,4.33242787 6.40017958,4.4694 C6.25222814,4.60637213 6.17825352,4.81182722 6.17825352,5.08577143 C6.17825352,5.45640187 6.38784825,5.75854169 6.80704401,5.9922 C7.16635468,6.19247854 7.69776491,6.41939215 8.40128704,6.67294596 L8.76739085,6.80194286 C9.88524619,7.18868767 10.8099289,7.57139811 11.5414665,7.95008571 C12.2730042,8.32877331 12.9141176,8.88471062 13.4648257,9.61791429 C14.0155338,10.351118 14.2908838,11.2897657 14.2908838,12.4338857 Z M24.5981162,0.203142857 C26.1105087,0.203142857 27.4626003,0.481111509 28.6544313,1.03705714 C29.8462624,1.59300278 30.8161518,2.37856635 31.5641285,3.39377143 C32.3121053,4.40897652 32.809379,5.59336464 33.0559648,6.94697143 L27.2858873,6.94697143 C27.0228626,6.38296858 26.6488798,5.94385874 26.1639278,5.62962857 C25.6789758,5.31539841 25.1241663,5.15828571 24.4994824,5.15828571 C23.5788957,5.15828571 22.8514786,5.49668232 22.3172095,6.17348571 C21.7829404,6.85028911 21.5158099,7.76073713 21.5158099,8.90485714 C21.5158099,10.0489772 21.7829404,10.9594252 22.3172095,11.6362286 C22.8514786,12.313032 23.5788957,12.6514286 24.4994824,12.6514286 C25.1241663,12.6514286 25.6789758,12.4943159 26.1639278,12.1800857 C26.6488798,11.8658555 27.0228626,11.4267457 27.2858873,10.8627429 L33.0559648,10.8627429 C32.809379,12.2163496 32.3121053,13.4007378 31.5641285,14.4159429 C30.8161518,15.4311479 29.8462624,16.2167115 28.6544313,16.7726571 C27.4626003,17.3286028 26.1105087,17.6065714 24.5981162,17.6065714 C22.8391379,17.6065714 21.3103293,17.2399751 20.0116444,16.5067714 C18.7129595,15.7735678 17.7143022,14.7462923 17.0156426,13.4249143 C16.316983,12.1035362 15.9676585,10.5968656 15.9676585,8.90485714 C15.9676585,7.21284866 16.316983,5.70617805 17.0156426,4.3848 C17.7143022,3.06342196 18.7129595,2.03614652 20.0116444,1.30294286 C21.3103293,0.569739194 22.8391379,0.203142857 24.5981162,0.203142857 Z M51.4265106,0.372342857 L51.4265106,17.4857143 L45.9523345,17.4857143 L45.9523345,10.8144 L40.7494014,10.8144 L40.7494014,17.4857143 L35.2752254,17.4857143 L35.2752254,0.372342857 L40.7494014,0.372342857 L40.7494014,6.53605714 L45.9523345,6.53605714 L45.9523345,0.372342857 L51.4265106,0.372342857 Z M62.6461056,0.0822857143 C64.2900106,0.0822857143 65.7941608,0.456939108 67.1586021,1.20625714 C68.5230434,1.95557517 69.6038946,2.99896474 70.4011884,4.33645714 C71.1984821,5.67394956 71.5971232,7.18062017 71.5971232,8.85651429 C71.5971232,10.5324084 71.1984821,12.039079 70.4011884,13.3765714 C69.6038946,14.7140638 68.5189333,15.7614819 67.1462729,16.5188571 C65.7736125,17.2762323 64.2735718,17.6549143 62.6461056,17.6549143 C61.0022007,17.6549143 59.4939403,17.2762323 58.1212799,16.5188571 C56.7486195,15.7614819 55.6595486,14.7140638 54.8540352,13.3765714 C54.0485218,12.039079 53.6457711,10.5324084 53.6457711,8.85651429 C53.6457711,7.18062017 54.0485218,5.67394956 54.8540352,4.33645714 C55.6595486,2.99896474 56.7486195,1.95557517 58.1212799,1.20625714 C59.4939403,0.456939108 61.0022007,0.0822857143 62.6461056,0.0822857143 Z M62.6461056,5.03742857 C61.5446892,5.03742857 60.6980912,5.37985373 60.1062852,6.06471429 C59.5144792,6.74957484 59.218581,7.68016553 59.218581,8.85651429 C59.218581,10.0167487 59.5144792,10.9392823 60.1062852,11.6241429 C60.6980912,12.3090034 61.5446892,12.6514286 62.6461056,12.6514286 C63.7310827,12.6514286 64.5694616,12.3090034 65.1612676,11.6241429 C65.7530736,10.9392823 66.0489718,10.0167487 66.0489718,8.85651429 C66.0489718,7.68016553 65.7530736,6.74957484 65.1612676,6.06471429 C64.5694616,5.37985373 63.7310827,5.03742857 62.6461056,5.03742857 Z M87.5264824,0.372342857 L87.5264824,4.62651429 L82.8906937,4.62651429 L82.8906937,17.4857143 L77.4165176,17.4857143 L77.4165176,4.62651429 L72.8300458,4.62651429 L72.8300458,0.372342857 L87.5264824,0.372342857 Z M110.236915,0.372342857 L110.236915,17.4857143 L104.787398,17.4857143 L104.787398,8.9532 L102.099627,17.4857143 L97.4145211,17.4857143 L94.72675,8.9532 L94.72675,17.4857143 L89.2525739,17.4857143 L89.2525739,0.372342857 L95.9596725,0.372342857 L99.8063908,10.6452 L103.554475,0.372342857 L110.236915,0.372342857 Z M124.144282,14.8993714 L118.324887,14.8993714 L117.461842,17.4857143 L111.716423,17.4857143 L118.102961,0.372342857 L124.415525,0.372342857 L130.777405,17.4857143 L125.007327,17.4857143 L124.144282,14.8993714 Z M122.812725,10.8627429 L121.234585,6.10097143 L119.656444,10.8627429 L122.812725,10.8627429 Z M149,17.4857143 L143.525824,17.4857143 L137.731088,8.88068571 L137.731088,17.4857143 L132.256912,17.4857143 L132.256912,0.372342857 L137.731088,0.372342857 L143.525824,9.1224 L143.525824,0.372342857 L149,0.372342857 L149,17.4857143 Z" id="path-1"></path>
                        </g>
                        <g id="path-1-link" fill="#FFFFFF">
                            <path d="M14.2908838,12.4338857 C14.2908838,13.4168621 14.0319726,14.3031389 13.5141426,15.0927429 C12.9963126,15.8823468 12.2442373,16.5067691 11.2578944,16.9660286 C10.2715514,17.425288 9.09617703,17.6549143 7.73173592,17.6549143 C5.64397667,17.6549143 3.92201206,17.1755191 2.56579049,16.2167143 C1.20956892,15.2579095 0.4739325,13.8519521 0.358859155,11.9988 L6.17825352,11.9988 C6.26044874,12.9817763 6.70429645,13.4732571 7.50980986,13.4732571 C7.78927368,13.4732571 8.01530726,13.4007436 8.18791725,13.2557143 C8.36052725,13.110685 8.44683099,12.9012014 8.44683099,12.6272571 C8.44683099,12.224398 8.23723625,11.906144 7.81804049,11.6724857 C7.4267911,11.4544046 6.81000686,11.2047429 5.96767114,10.923494 L5.78371831,10.8627429 C4.682302,10.5082268 3.76583875,10.145659 3.03430106,9.77502857 C2.30276336,9.40439813 1.66575975,8.85651789 1.12327113,8.13137143 C0.580782499,7.40622497 0.309542254,6.46354867 0.309542254,5.30331429 C0.309542254,4.19142302 0.601331,3.2447182 1.18491725,2.46317143 C1.7685035,1.68162467 2.56578544,1.08943059 3.57678697,0.686571429 C4.5877885,0.283712271 5.72617561,0.0822857143 6.99198239,0.0822857143 C9.07974164,0.0822857143 10.7400607,0.557652389 11.9729894,1.5084 C13.2059181,2.45914761 13.8799091,3.8288482 13.9949824,5.61754286 L8.10161268,5.61754286 C8.0194174,4.71513837 7.64132497,4.26394286 6.96732394,4.26394286 C6.73717723,4.26394286 6.54813102,4.33242787 6.40017958,4.4694 C6.25222814,4.60637213 6.17825352,4.81182722 6.17825352,5.08577143 C6.17825352,5.45640187 6.38784825,5.75854169 6.80704401,5.9922 C7.16635468,6.19247854 7.69776491,6.41939215 8.40128704,6.67294596 L8.76739085,6.80194286 C9.88524619,7.18868767 10.8099289,7.57139811 11.5414665,7.95008571 C12.2730042,8.32877331 12.9141176,8.88471062 13.4648257,9.61791429 C14.0155338,10.351118 14.2908838,11.2897657 14.2908838,12.4338857 Z M24.5981162,0.203142857 C26.1105087,0.203142857 27.4626003,0.481111509 28.6544313,1.03705714 C29.8462624,1.59300278 30.8161518,2.37856635 31.5641285,3.39377143 C32.3121053,4.40897652 32.809379,5.59336464 33.0559648,6.94697143 L27.2858873,6.94697143 C27.0228626,6.38296858 26.6488798,5.94385874 26.1639278,5.62962857 C25.6789758,5.31539841 25.1241663,5.15828571 24.4994824,5.15828571 C23.5788957,5.15828571 22.8514786,5.49668232 22.3172095,6.17348571 C21.7829404,6.85028911 21.5158099,7.76073713 21.5158099,8.90485714 C21.5158099,10.0489772 21.7829404,10.9594252 22.3172095,11.6362286 C22.8514786,12.313032 23.5788957,12.6514286 24.4994824,12.6514286 C25.1241663,12.6514286 25.6789758,12.4943159 26.1639278,12.1800857 C26.6488798,11.8658555 27.0228626,11.4267457 27.2858873,10.8627429 L33.0559648,10.8627429 C32.809379,12.2163496 32.3121053,13.4007378 31.5641285,14.4159429 C30.8161518,15.4311479 29.8462624,16.2167115 28.6544313,16.7726571 C27.4626003,17.3286028 26.1105087,17.6065714 24.5981162,17.6065714 C22.8391379,17.6065714 21.3103293,17.2399751 20.0116444,16.5067714 C18.7129595,15.7735678 17.7143022,14.7462923 17.0156426,13.4249143 C16.316983,12.1035362 15.9676585,10.5968656 15.9676585,8.90485714 C15.9676585,7.21284866 16.316983,5.70617805 17.0156426,4.3848 C17.7143022,3.06342196 18.7129595,2.03614652 20.0116444,1.30294286 C21.3103293,0.569739194 22.8391379,0.203142857 24.5981162,0.203142857 Z M51.4265106,0.372342857 L51.4265106,17.4857143 L45.9523345,17.4857143 L45.9523345,10.8144 L40.7494014,10.8144 L40.7494014,17.4857143 L35.2752254,17.4857143 L35.2752254,0.372342857 L40.7494014,0.372342857 L40.7494014,6.53605714 L45.9523345,6.53605714 L45.9523345,0.372342857 L51.4265106,0.372342857 Z M62.6461056,0.0822857143 C64.2900106,0.0822857143 65.7941608,0.456939108 67.1586021,1.20625714 C68.5230434,1.95557517 69.6038946,2.99896474 70.4011884,4.33645714 C71.1984821,5.67394956 71.5971232,7.18062017 71.5971232,8.85651429 C71.5971232,10.5324084 71.1984821,12.039079 70.4011884,13.3765714 C69.6038946,14.7140638 68.5189333,15.7614819 67.1462729,16.5188571 C65.7736125,17.2762323 64.2735718,17.6549143 62.6461056,17.6549143 C61.0022007,17.6549143 59.4939403,17.2762323 58.1212799,16.5188571 C56.7486195,15.7614819 55.6595486,14.7140638 54.8540352,13.3765714 C54.0485218,12.039079 53.6457711,10.5324084 53.6457711,8.85651429 C53.6457711,7.18062017 54.0485218,5.67394956 54.8540352,4.33645714 C55.6595486,2.99896474 56.7486195,1.95557517 58.1212799,1.20625714 C59.4939403,0.456939108 61.0022007,0.0822857143 62.6461056,0.0822857143 Z M62.6461056,5.03742857 C61.5446892,5.03742857 60.6980912,5.37985373 60.1062852,6.06471429 C59.5144792,6.74957484 59.218581,7.68016553 59.218581,8.85651429 C59.218581,10.0167487 59.5144792,10.9392823 60.1062852,11.6241429 C60.6980912,12.3090034 61.5446892,12.6514286 62.6461056,12.6514286 C63.7310827,12.6514286 64.5694616,12.3090034 65.1612676,11.6241429 C65.7530736,10.9392823 66.0489718,10.0167487 66.0489718,8.85651429 C66.0489718,7.68016553 65.7530736,6.74957484 65.1612676,6.06471429 C64.5694616,5.37985373 63.7310827,5.03742857 62.6461056,5.03742857 Z M87.5264824,0.372342857 L87.5264824,4.62651429 L82.8906937,4.62651429 L82.8906937,17.4857143 L77.4165176,17.4857143 L77.4165176,4.62651429 L72.8300458,4.62651429 L72.8300458,0.372342857 L87.5264824,0.372342857 Z M110.236915,0.372342857 L110.236915,17.4857143 L104.787398,17.4857143 L104.787398,8.9532 L102.099627,17.4857143 L97.4145211,17.4857143 L94.72675,8.9532 L94.72675,17.4857143 L89.2525739,17.4857143 L89.2525739,0.372342857 L95.9596725,0.372342857 L99.8063908,10.6452 L103.554475,0.372342857 L110.236915,0.372342857 Z M124.144282,14.8993714 L118.324887,14.8993714 L117.461842,17.4857143 L111.716423,17.4857143 L118.102961,0.372342857 L124.415525,0.372342857 L130.777405,17.4857143 L125.007327,17.4857143 L124.144282,14.8993714 Z M122.812725,10.8627429 L121.234585,6.10097143 L119.656444,10.8627429 L122.812725,10.8627429 Z M149,17.4857143 L143.525824,17.4857143 L137.731088,8.88068571 L137.731088,17.4857143 L132.256912,17.4857143 L132.256912,0.372342857 L137.731088,0.372342857 L143.525824,9.1224 L143.525824,0.372342857 L149,0.372342857 L149,17.4857143 Z" id="path-1"></path>
                        </g>
                    </g>
                    <g id="DEVELOPMENT" transform="translate(1.000000, 22.000000)">
                        <g id="path-3-link" fill="#000000">
                            <path d="M6.95683099,3.88266667 C6.95683099,4.60089248 6.79943819,5.24799712 6.48464789,5.824 C6.16985758,6.40000288 5.72041372,6.85333168 5.13630282,7.184 C4.55219192,7.51466832 3.87190529,7.68 3.09542254,7.68 L0,7.68 L0,0.128 L3.09542254,0.128 C3.87190529,0.128 4.55219192,0.2879984 5.13630282,0.608 C5.72041372,0.928 6.16985758,1.3724416 6.48464789,1.94133333 C6.79943819,2.51022507 6.95683099,3.15732971 6.95683099,3.88266667 Z M2.88556338,5.568 C3.41021389,5.568 3.82643039,5.42222368 4.13422535,5.13066667 C4.44202032,4.83910965 4.59591549,4.42311381 4.59591549,3.88266667 C4.59591549,3.34221952 4.44202032,2.92622368 4.13422535,2.63466667 C3.82643039,2.34310965 3.41021389,2.19733333 2.88556338,2.19733333 L2.32943662,2.19733333 L2.32943662,5.568 L2.88556338,5.568 Z M17.2217112,2.00533333 L17.2217112,2.944 L19.5301619,2.944 L19.5301619,4.72533333 L17.2217112,4.72533333 L17.2217112,5.792 L19.8449506,5.792 L19.8449506,7.68 L14.8922746,7.68 L14.8922746,0.128 L19.8449506,0.128 L19.8449506,2.00533333 L17.2217112,2.00533333 Z M29.7740562,0.128 L31.306028,5.32266667 L32.8275069,0.128 L35.3038449,0.128 L32.806521,7.68 L29.7950421,7.68 L27.2977181,0.128 L29.7740562,0.128 Z M45.2539364,2.00533333 L45.2539364,2.944 L47.5623871,2.944 L47.5623871,4.72533333 L45.2539364,4.72533333 L45.2539364,5.792 L47.8771758,5.792 L47.8771758,7.68 L42.9244997,7.68 L42.9244997,0.128 L47.8771758,0.128 L47.8771758,2.00533333 L45.2539364,2.00533333 Z M58.1840278,5.888 L60.4295208,5.888 L60.4295208,7.68 L55.8545912,7.68 L55.8545912,0.128 L58.1840278,0.128 L58.1840278,5.888 Z M71.8801052,0 C72.5796392,0 73.2197033,0.16533168 73.8003165,0.496 C74.3809296,0.82666832 74.8408664,1.28710816 75.1801404,1.87733333 C75.5194145,2.46755851 75.6890489,3.13244075 75.6890489,3.872 C75.6890489,4.61155925 75.5194145,5.27644149 75.1801404,5.86666667 C74.8408664,6.45689184 74.3791809,6.91910944 73.79507,7.25333333 C73.210959,7.58755723 72.5726441,7.75466667 71.8801052,7.75466667 C71.1805712,7.75466667 70.5387584,7.58755723 69.9546474,7.25333333 C69.3705365,6.91910944 68.9071024,6.45689184 68.5643305,5.86666667 C68.2215587,5.27644149 68.0501756,4.61155925 68.0501756,3.872 C68.0501756,3.13244075 68.2215587,2.46755851 68.5643305,1.87733333 C68.9071024,1.28710816 69.3705365,0.82666832 69.9546474,0.496 C70.5387584,0.16533168 71.1805712,0 71.8801052,0 Z M71.8801052,2.18666667 C71.4114173,2.18666667 71.0511626,2.33777627 70.7993305,2.64 C70.5474985,2.94222373 70.4215841,3.35288629 70.4215841,3.872 C70.4215841,4.38400256 70.5474985,4.7911096 70.7993305,5.09333333 C71.0511626,5.39555707 71.4114173,5.54666667 71.8801052,5.54666667 C72.3417974,5.54666667 72.6985548,5.39555707 72.9503869,5.09333333 C73.2022189,4.7911096 73.3281334,4.38400256 73.3281334,3.872 C73.3281334,3.35288629 73.2022189,2.94222373 72.9503869,2.64 C72.6985548,2.33777627 72.3417974,2.18666667 71.8801052,2.18666667 Z M85.953929,5.28 L85.953929,7.68 L83.6244924,7.68 L83.6244924,0.128 L86.8773093,0.128 C87.7867035,0.128 88.4844784,0.36266432 88.9706544,0.832 C89.4568304,1.30133568 89.699915,1.93066272 89.699915,2.72 C89.699915,3.19644683 89.5914886,3.62844251 89.3746333,4.016 C89.1577779,4.40355749 88.8377459,4.71110997 88.4145276,4.93866667 C87.9913094,5.16622336 87.4789084,5.28 86.8773093,5.28 L85.953929,5.28 Z M86.6149854,3.41333333 C87.0976641,3.41333333 87.3389995,3.18222453 87.3389995,2.72 C87.3389995,2.25777547 87.0976641,2.02666667 86.6149854,2.02666667 L85.953929,2.02666667 L85.953929,3.41333333 L86.6149854,3.41333333 Z M106.459936,0.128 L106.459936,7.68 L104.140992,7.68 L104.140992,3.91466667 L102.99726,7.68 L101.003598,7.68 L99.8598656,3.91466667 L99.8598656,7.68 L97.530429,7.68 L97.530429,0.128 L100.384513,0.128 L102.021415,4.66133333 L103.616344,0.128 L106.459936,0.128 Z M116.934675,2.00533333 L116.934675,2.944 L119.243126,2.944 L119.243126,4.72533333 L116.934675,4.72533333 L116.934675,5.792 L119.557915,5.792 L119.557915,7.68 L114.605239,7.68 L114.605239,0.128 L119.557915,0.128 L119.557915,2.00533333 L116.934675,2.00533333 Z M134.660049,7.68 L132.330612,7.68 L129.864767,3.88266667 L129.864767,7.68 L127.53533,7.68 L127.53533,0.128 L129.864767,0.128 L132.330612,3.98933333 L132.330612,0.128 L134.660049,0.128 L134.660049,7.68 Z M148.639436,0.128 L148.639436,2.00533333 L146.66676,2.00533333 L146.66676,7.68 L144.337323,7.68 L144.337323,2.00533333 L142.385633,2.00533333 L142.385633,0.128 L148.639436,0.128 Z" id="path-3"></path>
                        </g>
                        <g id="path-3-link" fill="#FFFFFF">
                            <path d="M6.95683099,3.88266667 C6.95683099,4.60089248 6.79943819,5.24799712 6.48464789,5.824 C6.16985758,6.40000288 5.72041372,6.85333168 5.13630282,7.184 C4.55219192,7.51466832 3.87190529,7.68 3.09542254,7.68 L0,7.68 L0,0.128 L3.09542254,0.128 C3.87190529,0.128 4.55219192,0.2879984 5.13630282,0.608 C5.72041372,0.928 6.16985758,1.3724416 6.48464789,1.94133333 C6.79943819,2.51022507 6.95683099,3.15732971 6.95683099,3.88266667 Z M2.88556338,5.568 C3.41021389,5.568 3.82643039,5.42222368 4.13422535,5.13066667 C4.44202032,4.83910965 4.59591549,4.42311381 4.59591549,3.88266667 C4.59591549,3.34221952 4.44202032,2.92622368 4.13422535,2.63466667 C3.82643039,2.34310965 3.41021389,2.19733333 2.88556338,2.19733333 L2.32943662,2.19733333 L2.32943662,5.568 L2.88556338,5.568 Z M17.2217112,2.00533333 L17.2217112,2.944 L19.5301619,2.944 L19.5301619,4.72533333 L17.2217112,4.72533333 L17.2217112,5.792 L19.8449506,5.792 L19.8449506,7.68 L14.8922746,7.68 L14.8922746,0.128 L19.8449506,0.128 L19.8449506,2.00533333 L17.2217112,2.00533333 Z M29.7740562,0.128 L31.306028,5.32266667 L32.8275069,0.128 L35.3038449,0.128 L32.806521,7.68 L29.7950421,7.68 L27.2977181,0.128 L29.7740562,0.128 Z M45.2539364,2.00533333 L45.2539364,2.944 L47.5623871,2.944 L47.5623871,4.72533333 L45.2539364,4.72533333 L45.2539364,5.792 L47.8771758,5.792 L47.8771758,7.68 L42.9244997,7.68 L42.9244997,0.128 L47.8771758,0.128 L47.8771758,2.00533333 L45.2539364,2.00533333 Z M58.1840278,5.888 L60.4295208,5.888 L60.4295208,7.68 L55.8545912,7.68 L55.8545912,0.128 L58.1840278,0.128 L58.1840278,5.888 Z M71.8801052,0 C72.5796392,0 73.2197033,0.16533168 73.8003165,0.496 C74.3809296,0.82666832 74.8408664,1.28710816 75.1801404,1.87733333 C75.5194145,2.46755851 75.6890489,3.13244075 75.6890489,3.872 C75.6890489,4.61155925 75.5194145,5.27644149 75.1801404,5.86666667 C74.8408664,6.45689184 74.3791809,6.91910944 73.79507,7.25333333 C73.210959,7.58755723 72.5726441,7.75466667 71.8801052,7.75466667 C71.1805712,7.75466667 70.5387584,7.58755723 69.9546474,7.25333333 C69.3705365,6.91910944 68.9071024,6.45689184 68.5643305,5.86666667 C68.2215587,5.27644149 68.0501756,4.61155925 68.0501756,3.872 C68.0501756,3.13244075 68.2215587,2.46755851 68.5643305,1.87733333 C68.9071024,1.28710816 69.3705365,0.82666832 69.9546474,0.496 C70.5387584,0.16533168 71.1805712,0 71.8801052,0 Z M71.8801052,2.18666667 C71.4114173,2.18666667 71.0511626,2.33777627 70.7993305,2.64 C70.5474985,2.94222373 70.4215841,3.35288629 70.4215841,3.872 C70.4215841,4.38400256 70.5474985,4.7911096 70.7993305,5.09333333 C71.0511626,5.39555707 71.4114173,5.54666667 71.8801052,5.54666667 C72.3417974,5.54666667 72.6985548,5.39555707 72.9503869,5.09333333 C73.2022189,4.7911096 73.3281334,4.38400256 73.3281334,3.872 C73.3281334,3.35288629 73.2022189,2.94222373 72.9503869,2.64 C72.6985548,2.33777627 72.3417974,2.18666667 71.8801052,2.18666667 Z M85.953929,5.28 L85.953929,7.68 L83.6244924,7.68 L83.6244924,0.128 L86.8773093,0.128 C87.7867035,0.128 88.4844784,0.36266432 88.9706544,0.832 C89.4568304,1.30133568 89.699915,1.93066272 89.699915,2.72 C89.699915,3.19644683 89.5914886,3.62844251 89.3746333,4.016 C89.1577779,4.40355749 88.8377459,4.71110997 88.4145276,4.93866667 C87.9913094,5.16622336 87.4789084,5.28 86.8773093,5.28 L85.953929,5.28 Z M86.6149854,3.41333333 C87.0976641,3.41333333 87.3389995,3.18222453 87.3389995,2.72 C87.3389995,2.25777547 87.0976641,2.02666667 86.6149854,2.02666667 L85.953929,2.02666667 L85.953929,3.41333333 L86.6149854,3.41333333 Z M106.459936,0.128 L106.459936,7.68 L104.140992,7.68 L104.140992,3.91466667 L102.99726,7.68 L101.003598,7.68 L99.8598656,3.91466667 L99.8598656,7.68 L97.530429,7.68 L97.530429,0.128 L100.384513,0.128 L102.021415,4.66133333 L103.616344,0.128 L106.459936,0.128 Z M116.934675,2.00533333 L116.934675,2.944 L119.243126,2.944 L119.243126,4.72533333 L116.934675,4.72533333 L116.934675,5.792 L119.557915,5.792 L119.557915,7.68 L114.605239,7.68 L114.605239,0.128 L119.557915,0.128 L119.557915,2.00533333 L116.934675,2.00533333 Z M134.660049,7.68 L132.330612,7.68 L129.864767,3.88266667 L129.864767,7.68 L127.53533,7.68 L127.53533,0.128 L129.864767,0.128 L132.330612,3.98933333 L132.330612,0.128 L134.660049,0.128 L134.660049,7.68 Z M148.639436,0.128 L148.639436,2.00533333 L146.66676,2.00533333 L146.66676,7.68 L144.337323,7.68 L144.337323,2.00533333 L142.385633,2.00533333 L142.385633,0.128 L148.639436,0.128 Z" id="path-3"></path>
                        </g>
                    </g>
                </g>
            </g>
        </g>
    </g>
</svg>