<?xml version="1.0" encoding="UTF-8"?>
<svg width="27px" height="20px" viewBox="0 0 27 20" version="1.1" xmlns="http://www.w3.org/2000/svg" xmlns:xlink="http://www.w3.org/1999/xlink">
    <!-- Generator: Sketch 64 (93537) - https://sketch.com -->
    <title>bx-bxs-quote-alt-left</title>
    <desc>Created with Sketch.</desc>
    <g id="Welcome" stroke="none" stroke-width="1" fill="none" fill-rule="evenodd">
        <g id="Desktop-FULL" transform="translate(-543.000000, -3000.000000)" fill-rule="nonzero">
            <g id="bx-bxs-quote-alt-left" transform="translate(541.000000, 2995.000000)">
                <g id="Icon" transform="translate(2.000000, 5.000000)" fill="#303030">
                    <path d="M6.39583333,7.91666667 C6.10779167,7.91666667 5.831375,7.96058333 5.55625,8.000625 C5.645375,7.70095833 5.73708333,7.396125 5.88433333,7.12229167 C6.03158333,6.72445833 6.2615,6.37958333 6.490125,6.032125 C6.68129167,5.65625 7.01841667,5.40179167 7.26641667,5.08016667 C7.52604167,4.76758333 7.87995833,4.559625 8.16025,4.3 C8.435375,4.02875 8.79575,3.893125 9.0825,3.70195833 C9.38216667,3.53016667 9.64308333,3.34029167 9.92208333,3.249875 L10.6182917,2.963125 L11.2305417,2.70866667 L10.6040833,0.205416667 L9.83295833,0.391416667 C9.58625,0.453416667 9.28529167,0.52575 8.943,0.612291667 C8.59295833,0.676875 8.21966667,0.853833333 7.80375,1.01529167 C7.393,1.19870833 6.91766667,1.32270833 6.47591667,1.61720833 C6.03158333,1.89879167 5.51879167,2.133875 5.06670833,2.51104167 C4.62883333,2.89983333 4.10054167,3.23695833 3.71045833,3.73166667 C3.28420833,4.19408333 2.863125,4.67975 2.53633333,5.23258333 C2.157875,5.75958333 1.90083333,6.33825 1.62958333,6.91045833 C1.38416667,7.48266667 1.18654167,8.06779167 1.02508333,8.636125 C0.718958333,9.775375 0.582041667,10.8577917 0.529083333,11.7839167 C0.485166667,12.7113333 0.511,13.4824583 0.56525,14.0404583 C0.584625,14.3039583 0.620791667,14.5597083 0.646625,14.7366667 L0.678916667,14.9536667 L0.7125,14.9459167 C1.35133749,17.9300741 4.1892199,19.9120151 7.21086919,19.4842951 C10.2325185,19.0565751 12.408837,16.3648648 12.194346,13.3206404 C11.979855,10.2764159 9.44760475,7.91646353 6.39583333,7.91666667 Z M20.6041667,7.91666667 C20.316125,7.91666667 20.0397083,7.96058333 19.7645833,8.000625 C19.8537083,7.70095833 19.9454167,7.396125 20.0926667,7.12229167 C20.2399167,6.72445833 20.4698333,6.37958333 20.6984583,6.032125 C20.889625,5.65625 21.22675,5.40179167 21.47475,5.08016667 C21.734375,4.76758333 22.0882917,4.559625 22.3685833,4.3 C22.6437083,4.02875 23.0040833,3.893125 23.2908333,3.70195833 C23.5905,3.53016667 23.8514167,3.34029167 24.1304167,3.249875 L24.826625,2.963125 L25.438875,2.70866667 L24.8124167,0.205416667 L24.0412917,0.391416667 C23.7945833,0.453416667 23.493625,0.52575 23.1513333,0.612291667 C22.8012917,0.676875 22.428,0.853833333 22.0120833,1.01529167 C21.602625,1.2 21.126,1.32270833 20.68425,1.6185 C20.2399167,1.90008333 19.727125,2.13516667 19.2750417,2.51233333 C18.8371667,2.901125 18.308875,3.23825 17.9187917,3.73166667 C17.4925417,4.19408333 17.0714583,4.67975 16.7446667,5.23258333 C16.3662083,5.75958333 16.1091667,6.33825 15.8379167,6.91045833 C15.5925,7.48266667 15.394875,8.06779167 15.2334167,8.636125 C14.9272917,9.775375 14.790375,10.8577917 14.7374167,11.7839167 C14.6935,12.7113333 14.7193333,13.4824583 14.7735833,14.0404583 C14.7929583,14.3039583 14.829125,14.5597083 14.8549583,14.7366667 L14.88725,14.9536667 L14.9208333,14.9459167 C15.5596708,17.9300741 18.3975532,19.9120151 21.4192025,19.4842951 C24.4408518,19.0565751 26.6171703,16.3648648 26.4026793,13.3206404 C26.1881883,10.2764159 23.6559381,7.91646353 20.6041667,7.91666667 L20.6041667,7.91666667 Z" id="Icon-Shape"></path>
                </g>
                <rect id="ViewBox" x="0" y="0" width="31" height="31"></rect>
            </g>
        </g>
    </g>
</svg>