<?xml version="1.0" encoding="UTF-8"?>
<svg width="27px" height="20px" viewBox="0 0 27 20" version="1.1" xmlns="http://www.w3.org/2000/svg" xmlns:xlink="http://www.w3.org/1999/xlink">
    <!-- Generator: Sketch 64 (93537) - https://sketch.com -->
    <title>bx-bxs-quote-alt-right</title>
    <desc>Created with Sketch.</desc>
    <g id="Welcome" stroke="none" stroke-width="1" fill="none" fill-rule="evenodd">
        <g id="Desktop-FULL" transform="translate(-1202.000000, -3096.000000)" fill-rule="nonzero">
            <g id="bx-bxs-quote-alt-right" transform="translate(1200.000000, 3090.000000)">
                <g id="Icon" transform="translate(2.000000, 6.000000)" fill="#303030">
                    <path d="M26.3520833,5.264625 L26.3197917,5.047625 L26.2862083,5.055375 C25.6479713,2.07071 22.8099597,0.0880691466 19.7879171,0.515655099 C16.7658744,0.943241051 14.5892946,3.63539169 14.8041286,6.67996358 C15.0189626,9.72453547 17.5520247,12.0843598 20.6041667,12.0833333 C20.8922083,12.0833333 21.168625,12.0394167 21.44375,11.999375 C21.354625,12.2990417 21.2629167,12.603875 21.1156667,12.8777083 C20.9684167,13.2755417 20.7385,13.6204167 20.509875,13.967875 C20.3187083,14.34375 19.9815833,14.5982083 19.7335833,14.9198333 C19.4739583,15.2324167 19.1200417,15.440375 18.83975,15.7 C18.564625,15.97125 18.20425,16.106875 17.9175,16.2980417 C17.6178333,16.4698333 17.3569167,16.6597083 17.0779167,16.750125 L16.3817083,17.036875 L15.7694583,17.2913333 L16.394625,19.795875 L17.16575,19.609875 C17.4124583,19.547875 17.7134167,19.4755417 18.0557083,19.389 C18.40575,19.3244167 18.7790417,19.1474583 19.1949583,18.986 C19.6044167,18.8012917 20.0810417,18.6785833 20.5227917,18.3827917 C20.967125,18.1012083 21.4799167,17.866125 21.932,17.4889583 C22.369875,17.1001667 22.8981667,16.7630417 23.28825,16.269625 C23.7145,15.8072083 24.1355833,15.3215417 24.462375,14.7687083 C24.8408333,14.2417083 25.097875,13.6630417 25.369125,13.0908333 C25.6145417,12.518625 25.8121667,11.9335 25.973625,11.3651667 C26.27975,10.2259167 26.4166667,9.1435 26.469625,8.217375 C26.5135417,7.28995833 26.4877083,6.51883333 26.4334583,5.96083333 C26.4153064,5.72780281 26.3881612,5.49556028 26.3520833,5.264625 L26.3520833,5.264625 Z M12.14375,5.264625 L12.1114583,5.047625 L12.077875,5.055375 C11.439638,2.07071 8.60162639,0.0880691466 5.57958372,0.515655099 C2.55754105,0.943241051 0.380961256,3.63539169 0.595795261,6.67996358 C0.810629265,9.72453547 3.34369137,12.0843598 6.39583333,12.0833333 C6.683875,12.0833333 6.96029167,12.0394167 7.23541667,11.999375 C7.14629167,12.2990417 7.05458333,12.603875 6.90733333,12.8777083 C6.76008333,13.2755417 6.53016667,13.6204167 6.30154167,13.967875 C6.110375,14.34375 5.77325,14.5982083 5.52525,14.9198333 C5.265625,15.2324167 4.91170833,15.440375 4.63141667,15.7 C4.35629167,15.97125 3.99591667,16.106875 3.70916667,16.2980417 C3.4095,16.4698333 3.14858333,16.6597083 2.86958333,16.750125 L2.173375,17.036875 C1.78458333,17.19575 1.56241667,17.28875 1.56241667,17.28875 L2.18758333,19.7932917 L2.95870833,19.6072917 C3.20541667,19.5452917 3.506375,19.4729583 3.84866667,19.3864167 C4.19870833,19.3218333 4.572,19.144875 4.98791667,18.9834167 C5.397375,18.7987083 5.874,18.676 6.31575,18.3802083 C6.76008333,18.098625 7.272875,17.8635417 7.72495833,17.486375 C8.16283333,17.0975833 8.691125,16.7604583 9.08120833,16.2670417 C9.50745833,15.804625 9.92854167,15.3189583 10.2553333,14.766125 C10.6337917,14.239125 10.8908333,13.6604583 11.1620833,13.08825 C11.4075,12.5160417 11.605125,11.9309167 11.7665833,11.3625833 C12.0727083,10.2233333 12.209625,9.14091667 12.2625833,8.21479167 C12.3065,7.287375 12.2806667,6.51625 12.2264167,5.95825 C12.2071302,5.72613098 12.1795571,5.49477509 12.14375,5.264625 L12.14375,5.264625 Z" id="Icon-Shape"></path>
                </g>
                <rect id="ViewBox" x="0" y="0" width="31" height="31"></rect>
            </g>
        </g>
    </g>
</svg>