<?xml version="1.0" encoding="UTF-8"?>
<svg width="22px" height="22px" viewBox="0 0 22 22" version="1.1" xmlns="http://www.w3.org/2000/svg" xmlns:xlink="http://www.w3.org/1999/xlink">
    <!-- Generator: Sketch 64 (93537) - https://sketch.com -->
    <title>logos-linkedin</title>
    <desc>Created with Sketch.</desc>
    <g id="Welcome" stroke="none" stroke-width="1" fill="none" fill-rule="evenodd">
        <g id="Desktop-FULL" transform="translate(-1200.000000, -3640.000000)" fill-rule="nonzero">
            <g id="logos-linkedin" transform="translate(1200.000000, 3640.000000)">
                <g id="Icon">
                    <path d="M20.2806719,0 L1.73339453,0 C0.847023438,0 0.126941406,0.707723077 0.126941406,1.58061538 L0.126941406,20.3457692 C0.126941406,21.2191692 0.847023437,21.9280769 1.73339453,21.9280769 L20.2805039,21.9280769 C21.1683867,21.9280769 21.8918281,21.2191692 21.8918281,20.3457692 L21.8918281,1.58044615 C21.8918281,0.707723077 21.1683867,0 20.2806719,0" id="Icon-Path" fill="#FFFFFF"></path>
                    <path d="M4.96847266,3.01890769 C6.00080859,3.01890769 6.83930859,3.86387692 6.83930859,4.90413846 C6.83930859,5.94507692 6.00080859,6.79038462 4.96847266,6.79038462 C3.93412109,6.79038462 3.09662891,5.94507692 3.09662891,4.90413846 C3.09662891,3.86387692 3.93412109,3.01890769 4.96847266,3.01890769 Z M3.35378906,8.22089231 L6.58198047,8.22089231 L6.58198047,18.6856154 L3.35378906,18.6856154 L3.35378906,8.22089231 Z" id="Icon-Shape" fill="#303030"></path>
                    <path d="M11.7033477,8.22089231 L11.7033477,9.65055385 L11.7463477,9.65055385 C12.1771875,8.82809231 13.2301836,7.96044615 14.8006914,7.96044615 C18.0695312,7.96044615 18.673043,10.1277846 18.673043,12.9454769 L18.673043,18.6856154 L15.4472031,18.6856154 L15.4472031,13.5966769 C15.4472031,12.3824462 15.4250312,10.8216308 13.7696992,10.8216308 C12.0896758,10.8216308 11.8325156,12.1436615 11.8325156,13.5086769 L11.8325156,18.6854462 L8.60667578,18.6854462 L8.60667578,8.22106154 L11.7033477,8.22089231 Z" id="Icon-Path" fill="#303030"></path>
                </g>
                <rect id="ViewBox" x="0" y="0" width="22" height="22"></rect>
            </g>
        </g>
    </g>
</svg>