<?xml version="1.0" encoding="UTF-8"?>
<svg width="17px" height="13px" viewBox="0 0 17 13" version="1.1" xmlns="http://www.w3.org/2000/svg" xmlns:xlink="http://www.w3.org/1999/xlink">
    <!-- Generator: Sketch 64 (93537) - https://sketch.com -->
    <title>ei-envelope</title>
    <desc>Created with Sketch.</desc>
    <g id="Welcome" stroke="none" stroke-width="1" fill="none" fill-rule="evenodd">
        <g id="Desktop-FULL" transform="translate(-282.000000, -3643.000000)" fill-rule="nonzero">
            <g id="ei-envelope" transform="translate(278.000000, 3637.000000)">
                <g id="Icon" fill="#FFFFFF">
                    <polygon id="Icon-Path" opacity="0.9" points="15.898 12.122 20.883 17.107 20.1755 17.814 15.1905 12.829"></polygon>
                    <polygon id="Icon-Path" opacity="0.9" points="9.139 12.1435 9.846 12.8505 4.896 17.8005 4.189 17.0955"></polygon>
                    <path d="M12.5,14.95 C11.75,14.95 10.95,14.65 10.4,14.05 L4.15,7.85 L4.85,7.15 L11.1,13.4 C11.9,14.2 13.15,14.2 13.95,13.4 L20.2,7.15 L20.9,7.85 L14.6,14.1 C14.05,14.65 13.25,14.95 12.5,14.95 L12.5,14.95 Z" id="Icon-Path"></path>
                    <path d="M19.5,19 L5.5,19 C4.65,19 4,18.35 4,17.5 L4,7.5 C4,6.65 4.65,6 5.5,6 L19.5,6 C20.35,6 21,6.65 21,7.5 L21,17.5 C21,18.35 20.35,19 19.5,19 Z M5.5,7 C5.2,7 5,7.2 5,7.5 L5,17.5 C5,17.8 5.2,18 5.5,18 L19.5,18 C19.8,18 20,17.8 20,17.5 L20,7.5 C20,7.2 19.8,7 19.5,7 L5.5,7 Z" id="Icon-Shape"></path>
                </g>
                <rect id="ViewBox" x="0" y="0" width="25" height="25"></rect>
            </g>
        </g>
    </g>
</svg>